<svg xmlns="http://www.w3.org/2000/svg" version="1.1" xmlns:xlink="http://www.w3.org/1999/xlink" xmlns:svgjs="http://svgjs.com/svgjs" width="2400.000000pt" height="2400.000000pt"><svg version="1.0" xmlns="http://www.w3.org/2000/svg" width="2400.000000pt" height="2400.000000pt" viewBox="0 0 2400.000000 2400.000000" preserveAspectRatio="xMidYMid meet">

<g transform="translate(0.000000,2400.000000) scale(0.100000,-0.100000)" fill="#000000" stroke="none">
<path d="M10990 22349 c-1880 -92 -3684 -725 -5210 -1827 -436 -315 -783 -613
-1190 -1021 -353 -354 -619 -659 -901 -1036 -998 -1330 -1637 -2899 -1848
-4535 -310 -2395 283 -4813 1662 -6780 484 -690 1087 -1347 1742 -1896 2042
-1712 4729 -2506 7385 -2184 1855 226 3623 991 5045 2184 348 292 795 727
1067 1038 1049 1201 1764 2563 2137 4073 610 2469 218 5091 -1087 7265 -418
697 -879 1287 -1462 1871 -408 409 -753 704 -1195 1024 -1776 1285 -3953 1931
-6145 1824z m995 -780 c2597 -147 5003 -1434 6597 -3529 711 -935 1248 -2052
1533 -3188 183 -733 265 -1402 265 -2172 0 -560 -35 -983 -126 -1510 -308
-1798 -1171 -3464 -2469 -4765 -1465 -1469 -3380 -2381 -5425 -2584 -341 -34
-528 -43 -900 -43 -372 0 -559 9 -900 43 -2046 203 -3963 1117 -5426 2586
-1463 1469 -2372 3402 -2558 5438 -37 404 -48 971 -26 1335 90 1475 510 2835
1262 4084 1080 1794 2796 3177 4773 3846 1102 373 2231 526 3400 459z"></path>
<path d="M11165 20799 c-55 -3 -176 -6 -269 -7 -104 -2 -175 -7 -183 -14 -19
-15 -17 -98 2 -98 7 0 36 -5 63 -11 l50 -10 6 -48 c11 -81 25 -429 32 -781 l7
-335 -36 -32 c-62 -54 -45 -123 26 -109 17 4 115 7 217 7 216 -1 289 11 399
65 127 63 241 198 299 356 75 204 78 485 7 675 -34 90 -73 149 -145 217 -111
106 -236 139 -475 125z m230 -168 c154 -76 232 -243 240 -516 7 -246 -47 -420
-162 -525 -77 -70 -141 -92 -276 -92 -60 0 -112 3 -117 8 -16 17 -24 159 -37
634 -8 303 -8 499 0 506 13 13 111 23 196 19 80 -3 103 -8 156 -34z"></path>
<path d="M12596 20732 c-2 -4 -7 -24 -11 -44 -7 -35 -5 -37 21 -43 64 -15 96
-28 101 -43 9 -22 -8 -128 -93 -597 -105 -583 -107 -589 -152 -581 -100 19
-101 19 -107 -7 -11 -42 -2 -70 25 -78 14 -4 75 -14 135 -24 61 -9 148 -25
194 -36 91 -21 105 -18 114 28 7 40 -1 52 -41 59 -21 3 -48 13 -61 21 -22 14
-23 20 -18 77 5 49 76 467 81 473 5 6 224 -41 248 -53 l31 -16 -8 -66 c-14
-121 -15 -117 30 -117 38 0 40 1 46 40 4 22 24 124 43 226 20 103 33 194 30
203 -3 9 -14 16 -24 16 -10 0 -24 2 -32 5 -9 4 -21 -18 -38 -72 -24 -74 -27
-78 -55 -79 -35 -1 -234 32 -242 39 -9 9 77 480 89 493 8 7 169 -18 229 -36
104 -31 109 -38 97 -139 -5 -46 -7 -86 -4 -88 3 -3 22 -6 42 -7 l37 -1 17 75
c9 41 27 110 40 153 14 46 19 81 14 86 -18 15 -93 31 -344 70 -140 22 -284 47
-320 55 -72 17 -106 20 -114 8z"></path>
<path d="M9813 20651 c-112 -31 -181 -69 -254 -142 -147 -146 -208 -381 -164
-640 51 -307 196 -543 389 -635 67 -32 89 -37 169 -42 164 -8 296 43 408 159
190 195 243 525 139 864 -64 205 -209 372 -375 430 -76 27 -223 30 -312 6z
m215 -152 c169 -73 295 -311 333 -629 38 -321 -87 -534 -313 -533 -191 1 -356
189 -445 507 -19 70 -26 123 -30 232 -5 126 -3 148 17 211 12 39 38 92 58 118
85 111 249 151 380 94z"></path>
<path d="M13940 20389 c-158 -30 -332 -184 -429 -377 -139 -278 -158 -606 -47
-803 41 -72 113 -137 201 -180 199 -98 399 -68 599 91 182 145 319 429 333
690 15 292 -138 505 -412 575 -64 16 -173 18 -245 4z m214 -113 c282 -85 338
-458 131 -883 -124 -254 -304 -363 -485 -294 -144 55 -220 193 -221 401 0 145
29 290 88 439 71 176 186 303 313 342 41 12 124 10 174 -5z"></path>
<path d="M8550 20283 c-153 -26 -313 -132 -389 -258 -165 -273 -72 -739 203
-1023 117 -122 242 -182 376 -182 198 0 380 114 469 293 56 114 74 196 73 342
-1 377 -225 735 -511 819 -50 15 -160 19 -221 9z m115 -162 c175 -47 352 -297
431 -608 49 -195 20 -370 -77 -460 -13 -12 -50 -34 -83 -49 -51 -23 -67 -26
-135 -22 -97 6 -157 35 -251 124 -233 220 -366 642 -269 850 65 138 227 208
384 165z"></path>
<path d="M15037 20003 c-10 -22 -9 -28 7 -37 43 -26 76 -59 76 -78 0 -23 -80
-179 -247 -483 -152 -276 -209 -390 -229 -459 -47 -168 44 -329 243 -428 85
-42 89 -43 187 -43 119 0 165 18 251 97 69 63 120 143 305 483 241 441 247
449 330 406 l40 -21 14 29 c18 33 16 36 -44 62 -25 11 -92 48 -149 81 l-103
61 -19 -24 c-24 -31 -24 -36 1 -44 35 -11 80 -56 80 -79 0 -30 -55 -142 -206
-418 -218 -398 -275 -478 -369 -514 -62 -23 -146 -15 -227 23 -79 38 -121 73
-156 132 -22 38 -27 58 -27 116 0 64 5 80 53 179 28 60 82 163 118 230 37 66
80 146 97 176 140 258 199 350 225 357 15 3 41 -2 69 -16 24 -11 46 -21 48
-21 2 0 11 13 19 28 l15 28 -87 43 c-48 23 -133 69 -189 102 -56 32 -104 59
-107 59 -4 0 -12 -12 -19 -27z"></path>
<path d="M7510 19819 c-30 -22 -88 -59 -127 -82 -40 -22 -75 -49 -78 -58 -3
-10 4 -33 17 -52 l22 -35 52 26 c28 14 58 23 66 20 20 -8 337 -823 324 -835
-3 -3 -229 203 -715 653 l-65 61 -33 -20 c-18 -10 -33 -21 -33 -23 0 -2 31
-109 69 -237 92 -305 222 -769 218 -774 -9 -8 -587 644 -587 662 0 7 20 26 45
42 25 15 45 32 45 37 0 14 -50 76 -62 76 -6 0 -45 -24 -87 -53 -42 -29 -115
-77 -163 -106 -49 -29 -88 -59 -88 -67 0 -20 28 -61 46 -68 7 -3 29 4 47 14
l34 20 35 -32 c40 -36 508 -548 736 -805 80 -90 147 -163 150 -163 11 0 92 51
92 59 0 4 -14 47 -30 97 -44 126 -130 417 -190 639 -28 105 -58 212 -65 239
-14 45 -13 47 3 35 23 -19 666 -603 722 -657 l45 -44 43 24 c24 13 46 26 48
30 3 4 -16 60 -42 125 -172 439 -386 1036 -409 1141 -6 28 -3 36 19 53 30 24
32 40 10 74 -23 35 -50 31 -114 -16z"></path>
<path d="M16288 19295 c-23 -31 -23 -32 16 -75 39 -44 39 -74 -2 -130 -37 -50
-485 -613 -550 -690 -85 -102 -153 -170 -169 -170 -8 0 -29 11 -47 25 -18 14
-40 25 -48 25 -15 0 -48 -40 -48 -58 0 -5 48 -45 108 -90 59 -44 118 -91 131
-106 30 -32 51 -33 81 -1 l23 24 -41 47 c-41 46 -41 46 -26 78 9 17 35 56 57
86 80 108 539 681 543 677 3 -2 -5 -76 -16 -163 -12 -87 -28 -213 -36 -279 -8
-65 -17 -133 -19 -150 -3 -16 -11 -82 -20 -145 -8 -63 -19 -146 -24 -185 -5
-38 -13 -101 -16 -140 -4 -38 -8 -81 -11 -95 -2 -14 -4 -51 -5 -83 -1 -47 3
-64 25 -96 36 -51 59 -72 72 -63 6 4 50 60 98 124 86 116 514 654 648 816 77
92 97 99 152 57 18 -14 38 -25 44 -25 9 0 52 51 52 62 0 3 -40 35 -89 71 -49
37 -114 89 -144 117 -30 27 -57 50 -60 50 -9 0 -57 -54 -57 -64 0 -5 18 -28
40 -52 22 -24 40 -50 40 -58 0 -18 -110 -162 -394 -516 l-229 -285 7 65 c8 77
55 464 61 500 2 14 13 97 24 185 11 88 32 239 46 335 14 96 27 189 30 205 4
27 -2 34 -49 67 -29 20 -75 57 -103 82 -28 25 -57 46 -64 46 -8 0 -22 -11 -31
-25z"></path>
<path d="M6042 18798 l-53 -50 121 -340 c66 -188 119 -342 117 -344 -2 -2 -84
34 -183 80 -208 97 -405 174 -454 177 -83 6 -84 5 -142 -89 l-55 -89 31 -36
31 -36 30 25 c20 16 43 24 68 24 58 0 240 -63 485 -168 l223 -96 129 -140
c208 -228 203 -220 145 -276 -39 -38 -44 -59 -17 -83 33 -30 55 -19 147 74 50
49 120 115 158 147 37 31 67 62 67 68 0 7 -11 26 -25 43 l-26 30 -61 -39 -60
-40 -42 35 c-65 56 -275 285 -301 330 -36 60 -151 416 -205 628 -26 104 -53
194 -61 202 -12 12 -22 7 -67 -37z"></path>
<path d="M11235 18660 c-68 -11 -139 -36 -204 -73 -51 -28 -53 -31 -35 -44 21
-15 144 -94 314 -203 63 -40 147 -95 187 -122 39 -26 74 -48 78 -48 4 0 57 49
118 108 62 60 136 131 166 159 l54 50 -48 27 c-27 14 -87 42 -134 61 -204 82
-351 107 -496 85z"></path>
<path d="M11930 18653 c8 -3 17 -9 20 -12 3 -3 55 -32 117 -63 l112 -58 33 70
34 70 -165 -1 c-92 0 -159 -3 -151 -6z"></path>
<path d="M12427 18566 c-37 -47 -67 -89 -67 -94 0 -6 23 -25 51 -43 28 -18 56
-37 62 -44 7 -6 37 -28 67 -48 118 -79 166 -113 203 -141 37 -28 38 -28 59
-10 141 122 160 141 154 161 -2 10 -8 50 -11 90 -6 62 -10 72 -28 76 -12 3
-69 22 -127 42 -191 68 -273 95 -285 95 -6 0 -41 -38 -78 -84z"></path>
<path d="M10280 18574 c-44 -7 -163 -36 -179 -43 -84 -39 -151 -76 -174 -94
l-28 -23 308 -137 c169 -75 309 -134 311 -132 9 8 22 172 24 297 l3 133 -120
1 c-66 1 -131 0 -145 -2z"></path>
<path d="M9558 18344 c-186 -78 -324 -212 -392 -384 -10 -25 -20 -54 -22 -64
-2 -10 -9 -35 -15 -55 -12 -34 -18 -265 -8 -275 3 -3 25 2 49 11 94 35 278 13
423 -52 l57 -25 0 435 c0 495 10 452 -92 409z"></path>
<path d="M10730 18242 l0 -131 99 -118 c54 -65 185 -221 290 -348 106 -126
207 -248 226 -270 18 -22 55 -66 82 -98 l48 -58 3 188 3 188 -35 75 c-55 119
-92 200 -126 275 -93 206 -93 205 -124 219 -17 8 -123 55 -236 106 -113 51
-211 94 -217 97 -10 4 -13 -25 -13 -125z"></path>
<path d="M12116 18327 c-22 -17 -58 -48 -81 -67 -23 -19 -61 -51 -86 -71 -181
-149 -244 -202 -246 -207 -2 -4 109 -121 245 -261 l248 -254 95 57 c147 89
242 147 269 164 14 9 36 18 49 20 21 3 23 0 17 -24 -4 -15 -18 -41 -32 -59
-13 -17 -24 -35 -24 -39 0 -3 -24 -43 -54 -89 -97 -149 -146 -228 -146 -233 0
-3 -12 -21 -26 -39 -20 -26 -29 -54 -36 -115 -6 -44 -8 -83 -5 -86 3 -3 47 25
99 63 130 97 223 164 266 192 21 13 39 27 42 31 3 3 58 44 122 89 65 45 120
86 123 92 9 13 -29 56 -350 399 -127 135 -297 320 -355 385 -71 79 -77 85 -87
85 -4 0 -26 -15 -47 -33z"></path>
<path d="M17456 18316 l-29 -24 33 -57 33 -57 -94 -92 c-95 -93 -471 -425
-674 -594 l-110 -92 -48 6 c-38 5 -52 3 -67 -11 -29 -26 -25 -46 15 -78 19
-15 82 -85 139 -155 57 -70 126 -148 153 -174 136 -126 334 -168 545 -114 291
74 578 333 648 586 19 65 17 195 -3 260 -27 89 -83 170 -244 347 -83 93 -170
192 -193 221 -23 28 -49 52 -58 52 -10 -1 -30 -11 -46 -24z m246 -384 c44 -46
87 -103 104 -138 26 -53 29 -69 29 -154 0 -83 -3 -102 -28 -155 -99 -212 -394
-448 -607 -485 -162 -29 -307 42 -416 204 l-34 50 43 44 c43 45 631 565 745
660 35 28 69 52 76 52 7 0 47 -35 88 -78z"></path>
<path d="M13427 18168 c-3 -84 -5 -154 -3 -155 3 -3 91 55 205 135 l74 52 -69
31 c-38 17 -97 44 -132 60 -35 16 -65 29 -66 29 -2 0 -6 -69 -9 -152z"></path>
<path d="M13134 18272 c-14 -10 -244 -345 -244 -356 0 -11 172 -245 180 -245
3 0 43 50 90 110 47 61 104 135 128 165 23 30 42 56 42 58 0 2 -30 48 -67 101
-38 53 -80 114 -94 135 -14 21 -30 35 -35 32z"></path>
<path d="M9887 18198 c-3 -13 -9 -163 -13 -335 l-6 -311 50 -36 c27 -20 95
-67 149 -104 55 -37 149 -101 209 -142 263 -182 396 -271 399 -268 1 2 6 152
9 333 l7 330 -227 200 c-125 110 -267 235 -315 278 l-88 77 -85 0 c-79 0 -84
-1 -89 -22z"></path>
<path d="M13687 17929 l-117 -149 0 -194 0 -194 -62 -21 c-96 -32 -95 -33
-103 57 -4 42 -9 86 -11 97 -3 11 -7 48 -11 83 -3 34 -9 62 -12 62 -3 0 -36
-44 -73 -96 l-68 -96 0 -364 c0 -334 5 -399 25 -346 3 9 26 46 49 82 24 36 68
103 98 150 30 47 81 126 114 177 l59 91 58 12 c44 8 60 16 67 33 8 21 53 286
66 392 17 145 42 370 40 372 -1 1 -54 -65 -119 -148z"></path>
<path d="M13996 18033 c3 -16 10 -41 15 -58 4 -16 27 -104 49 -195 61 -243 60
-240 68 -240 5 0 17 8 28 18 10 10 83 73 162 140 l142 121 -32 17 c-18 9 -64
33 -103 54 -163 87 -324 170 -329 170 -4 0 -4 -12 0 -27z"></path>
<path d="M8898 18025 c-53 -20 -280 -134 -299 -151 -8 -8 -19 -14 -22 -14 -14
0 -154 -97 -227 -156 -136 -112 -159 -100 217 -107 181 -3 331 -2 335 1 4 4 9
43 12 87 4 44 8 94 11 110 7 51 18 245 14 244 -2 0 -21 -7 -41 -14z"></path>
<path d="M5115 17877 c-27 -40 -87 -118 -133 -175 -47 -58 -81 -110 -78 -117
3 -8 17 -22 32 -31 l26 -18 35 42 c42 51 62 53 128 11 56 -36 322 -236 330
-249 8 -13 -76 -126 -332 -448 -13 -16 -41 4 -285 196 -127 101 -131 109 -88
169 l33 46 -27 24 c-15 12 -32 23 -39 23 -7 0 -37 -35 -67 -78 -30 -42 -90
-122 -134 -176 l-80 -99 28 -23 c36 -31 46 -30 76 11 41 55 60 59 118 20 81
-53 676 -508 815 -623 86 -71 92 -86 52 -144 -14 -20 -25 -43 -25 -51 0 -14
41 -47 58 -47 4 0 33 35 62 77 30 43 89 121 132 175 43 53 78 99 78 103 0 11
-44 44 -58 45 -7 0 -26 -16 -43 -35 -18 -21 -40 -35 -54 -35 -12 0 -74 37
-137 83 -141 102 -328 246 -328 254 0 18 335 453 349 453 11 0 355 -271 404
-318 26 -25 47 -51 47 -58 0 -6 -13 -30 -30 -52 -16 -23 -30 -46 -30 -51 0 -9
52 -51 63 -51 3 0 37 44 75 98 39 53 100 133 136 176 36 43 66 83 66 88 0 13
-42 47 -57 48 -7 0 -27 -18 -44 -40 -56 -70 -37 -80 -524 294 -462 354 -485
373 -485 399 0 13 14 43 32 66 l32 44 -28 23 c-15 13 -32 24 -39 24 -7 0 -34
-33 -62 -73z"></path>
<path d="M14620 17792 c0 -27 -3 -91 -7 -142 -4 -59 -3 -91 3 -87 6 3 50 8 99
11 113 8 199 15 249 22 l38 6 -73 48 c-118 75 -262 166 -286 179 -22 11 -23
10 -23 -37z"></path>
<path d="M11746 17501 l64 -188 -75 -219 c-41 -120 -90 -263 -108 -316 -19
-54 -32 -98 -30 -98 3 0 67 27 142 61 142 64 191 85 303 135 37 16 68 34 68
40 0 13 -78 354 -110 477 -11 43 -20 79 -20 81 0 3 -24 21 -52 42 -29 21 -94
69 -144 106 -51 37 -94 68 -97 68 -3 0 24 -85 59 -189z"></path>
<path d="M10881 17228 l-2 -283 73 -91 c40 -50 87 -110 103 -132 17 -23 32
-42 35 -42 3 0 19 26 36 58 17 31 61 112 97 180 38 69 64 129 60 135 -7 12
-30 38 -109 127 -22 25 -62 72 -90 105 -27 33 -53 65 -59 71 -40 44 -111 129
-118 140 -4 8 -12 14 -16 14 -5 0 -9 -127 -10 -282z"></path>
<path d="M15186 17314 c-4 -97 -5 -178 -4 -179 4 -4 469 73 474 78 4 4 -447
277 -457 277 -3 0 -9 -79 -13 -176z"></path>
<path d="M14680 17399 l-100 -79 0 -73 0 -73 206 -13 c113 -7 211 -14 219 -17
15 -6 23 54 27 196 l2 95 -39 7 c-22 4 -60 10 -84 13 -23 3 -63 10 -87 14
l-45 9 -99 -79z"></path>
<path d="M7975 17289 c-60 -50 -116 -96 -122 -103 -10 -9 -8 -31 11 -106 46
-182 120 -343 192 -420 44 -47 64 -57 184 -90 19 -5 67 -19 106 -30 62 -17
100 -20 302 -20 200 0 231 2 236 16 3 9 6 66 6 127 0 118 15 459 26 588 l6 77
-69 6 c-37 3 -113 9 -168 12 -55 3 -182 12 -283 20 -101 7 -214 14 -250 14
l-67 -1 -110 -90z"></path>
<path d="M14202 17302 l-83 -77 7 -337 7 -338 42 33 c23 17 92 70 152 117
l110 84 7 75 c3 41 6 94 6 118 0 24 8 63 19 86 10 23 28 63 39 89 l20 46 -21
19 c-12 11 -62 48 -112 83 -49 35 -95 67 -100 71 -6 4 -47 -26 -93 -69z"></path>
<path d="M9179 17343 c-1 -10 2 -196 10 -533 l6 -264 70 -17 c270 -64 615
-137 615 -131 0 5 -132 259 -198 381 l-45 83 12 182 c6 99 14 209 18 244 l6
62 -247 0 c-135 0 -246 -3 -247 -7z"></path>
<path d="M12934 17174 c-93 -69 -189 -140 -214 -157 -25 -17 -50 -36 -56 -42
-6 -5 -39 -30 -73 -55 -35 -25 -75 -56 -91 -70 l-28 -25 9 -165 c4 -91 9 -198
11 -238 l3 -73 65 7 c36 4 76 11 89 15 17 7 144 112 191 159 3 3 55 50 115
105 61 55 113 104 116 109 4 5 10 88 13 185 4 97 10 220 14 274 4 53 7 97 6
97 -1 0 -77 -57 -170 -126z"></path>
<path d="M13859 17140 c-30 -47 -70 -108 -88 -137 l-33 -52 8 -321 c8 -371
-11 -337 143 -261 l94 46 -7 125 c-8 138 -10 167 -31 383 -8 81 -15 171 -16
200 -1 28 -4 63 -8 77 -6 22 -11 17 -62 -60z"></path>
<path d="M9890 17204 c0 -4 4 -23 10 -43 5 -20 31 -124 56 -231 37 -158 88
-371 110 -460 2 -8 14 -62 28 -118 13 -57 27 -107 31 -110 6 -7 145 -57 208
-75 35 -10 44 -9 94 18 114 59 208 234 266 493 l15 63 -245 204 -244 203 -72
15 c-201 43 -257 52 -257 41z"></path>
<path d="M7489 17076 c-152 -130 -283 -286 -390 -463 l-52 -85 31 -25 c17 -13
50 -42 74 -64 49 -45 49 -45 198 -4 47 12 148 40 225 60 211 57 308 85 314 91
6 6 -17 50 -153 299 -12 22 -48 88 -80 148 -40 74 -63 107 -75 107 -10 0 -51
-29 -92 -64z"></path>
<path d="M15380 16984 c-113 -7 -210 -13 -216 -13 -7 -1 -9 -30 -7 -83 6 -141
-4 -131 121 -124 59 3 160 9 225 12 l119 7 43 66 c24 36 57 85 75 109 l32 42
-94 -1 c-51 -1 -185 -8 -298 -15z"></path>
<path d="M14867 16973 l-147 -4 -43 -46 c-23 -25 -63 -68 -90 -96 l-47 -50 57
6 c32 4 108 9 169 13 l112 6 76 83 c72 79 86 98 69 93 -5 -1 -74 -4 -156 -5z"></path>
<path d="M15760 16753 c-13 -76 -25 -151 -28 -167 l-5 -29 59 7 c33 4 79 9
104 12 25 2 78 9 118 14 40 6 91 10 113 10 21 0 39 3 39 8 -1 4 -24 24 -53 45
-29 21 -112 83 -185 137 -73 55 -134 100 -136 100 -1 0 -13 -62 -26 -137z"></path>
<path d="M11950 16569 c-135 -143 -292 -309 -349 -370 -57 -60 -102 -111 -100
-113 2 -2 65 4 139 12 114 13 156 13 270 3 74 -7 144 -15 155 -17 14 -4 62 30
173 121 83 69 152 127 152 129 0 2 -51 141 -84 226 -11 31 -39 104 -61 163
-22 59 -42 107 -45 106 -3 0 -115 -117 -250 -260z"></path>
<path d="M18663 16795 c-104 -33 -1187 -283 -1264 -292 -46 -5 -48 -4 -71 31
-12 19 -27 36 -32 36 -18 0 -76 -42 -76 -56 0 -7 26 -53 58 -101 31 -48 71
-114 87 -146 17 -31 38 -60 48 -63 14 -4 87 29 87 41 0 1 -9 22 -20 46 -32 72
-30 75 63 103 77 24 251 67 253 63 0 -1 45 -75 98 -164 92 -152 97 -163 83
-183 -25 -36 -218 -240 -227 -240 -5 0 -25 22 -45 50 l-36 49 -34 -22 c-19
-12 -37 -28 -40 -36 -3 -7 25 -61 63 -120 37 -58 85 -136 106 -173 41 -75 58
-82 106 -48 l28 20 -16 44 c-15 40 -15 46 0 67 9 13 212 252 452 531 l436 508
-22 35 c-25 39 -26 39 -85 20z m-270 -207 c-19 -22 -304 -350 -308 -356 -2 -2
-37 54 -79 124 -42 70 -74 129 -71 133 7 6 439 118 464 120 11 1 9 -5 -6 -21z"></path>
<path d="M13382 16584 l-152 -166 0 -160 c0 -145 2 -160 17 -154 9 4 36 11 59
16 23 5 53 14 66 19 13 6 48 17 79 25 l56 16 7 68 c4 37 9 126 11 197 2 72 7
169 11 218 3 48 4 87 2 87 -3 0 -73 -75 -156 -166z"></path>
<path d="M14811 16678 c-113 -4 -206 -9 -207 -11 -2 -2 -6 -30 -9 -62 -3 -33
-7 -69 -9 -80 -2 -11 -7 -56 -10 -100 -4 -44 -11 -111 -16 -150 -6 -38 -12
-90 -14 -115 -3 -25 -8 -76 -12 -114 l-7 -70 69 75 c38 40 119 126 180 189
238 248 219 222 243 335 25 117 25 115 9 113 -7 0 -105 -5 -217 -10z"></path>
<path d="M10841 16573 c-5 -27 -17 -88 -26 -138 -9 -49 -20 -115 -26 -145 -16
-94 -23 -319 -10 -397 20 -132 17 -128 223 -288 103 -80 190 -145 193 -145 4
0 4 8 1 18 -3 9 -13 62 -21 117 -20 130 -41 266 -60 385 -9 52 -24 156 -35
230 -11 74 -28 179 -37 233 l-17 99 -78 39 c-43 21 -82 39 -87 39 -5 0 -14
-21 -20 -47z"></path>
<path d="M15255 16585 c-14 -12 -64 -82 -154 -214 -36 -53 -90 -133 -120 -176
l-54 -78 74 7 c41 4 90 9 109 12 41 6 64 9 145 19 66 8 102 28 182 102 l52 48
15 126 c9 70 18 134 22 142 5 14 -12 16 -127 19 -78 2 -137 -1 -144 -7z"></path>
<path d="M16095 16494 c-11 -2 -85 -8 -164 -14 -133 -9 -146 -12 -180 -37 -20
-15 -38 -29 -41 -33 -3 -3 -33 -28 -68 -55 -34 -28 -64 -59 -67 -70 -2 -11 -6
-91 -8 -177 -3 -154 -2 -157 18 -153 63 14 235 48 262 52 18 3 36 10 41 17 19
23 242 457 242 469 0 4 -3 6 -7 6 -5 -1 -17 -3 -28 -5z"></path>
<path d="M14390 16461 c-8 -9 -79 -89 -156 -177 -157 -178 -142 -148 -159
-324 -2 -25 -9 -85 -14 -135 -6 -49 -11 -94 -11 -98 0 -8 85 100 160 204 19
26 63 86 96 132 63 86 63 85 79 217 3 19 9 71 15 114 5 44 9 80 7 81 -1 1 -9
-6 -17 -14z"></path>
<path d="M12960 16393 c-52 -30 -149 -83 -215 -118 l-120 -64 -51 -149 c-28
-82 -53 -153 -56 -158 -13 -21 -40 -116 -35 -121 3 -3 59 15 124 40 296 114
464 177 475 177 8 0 9 34 5 128 -4 70 -7 171 -7 225 0 71 -3 97 -12 96 -7 0
-56 -25 -108 -56z"></path>
<path d="M7920 16340 c-52 -10 -106 -20 -120 -23 -14 -3 -65 -13 -115 -22
-121 -22 -403 -74 -438 -81 l-28 -6 34 -61 c50 -89 165 -289 177 -307 6 -8 14
-24 20 -35 5 -11 24 -44 42 -74 l33 -53 126 1 c69 1 157 4 195 6 38 2 178 6
312 10 178 6 240 10 233 19 -5 6 -31 52 -59 101 -27 50 -60 108 -72 130 -29
51 -59 104 -100 180 -107 196 -130 235 -138 234 -4 0 -50 -9 -102 -19z"></path>
<path d="M4012 16208 c-27 -57 -70 -141 -96 -187 -50 -88 -51 -100 -1 -115 16
-5 26 3 48 39 15 25 33 48 41 51 19 7 217 -85 576 -268 556 -284 535 -269 490
-358 l-20 -39 29 -16 c17 -8 32 -15 35 -15 3 0 34 61 70 136 36 75 79 159 96
186 16 26 30 53 30 58 0 5 -13 16 -30 25 l-29 15 -27 -45 c-16 -29 -35 -47
-52 -52 -20 -5 -120 41 -506 235 -265 132 -502 255 -528 271 -55 35 -59 51
-27 112 11 23 19 42 17 44 -10 8 -48 25 -58 25 -6 0 -32 -46 -58 -102z"></path>
<path d="M8260 16296 c0 -2 25 -47 55 -100 30 -54 73 -130 94 -169 22 -40 77
-139 123 -222 l83 -150 100 3 c55 2 170 7 255 12 85 6 199 11 252 12 54 1 102
4 108 8 5 3 -44 64 -110 135 l-120 130 0 172 0 173 -420 0 c-231 0 -420 -2
-420 -4z"></path>
<path d="M16218 16262 c-8 -15 -39 -65 -67 -111 -28 -46 -51 -87 -51 -90 0 -3
-9 -17 -20 -31 -11 -14 -20 -28 -20 -32 0 -10 113 -10 283 -1 119 6 127 7 115
24 -27 37 -209 259 -216 263 -4 2 -15 -8 -24 -22z"></path>
<path d="M9259 16249 c5 -13 18 -42 29 -64 11 -22 26 -56 35 -75 66 -147 98
-208 118 -226 23 -20 264 -189 561 -394 36 -25 103 -71 148 -103 45 -32 84
-57 86 -54 2 2 -21 91 -52 198 -31 107 -74 255 -95 329 -22 74 -45 140 -52
146 -11 10 -709 249 -765 261 -20 5 -21 3 -13 -18z"></path>
<path d="M13832 16115 c-84 -90 -85 -92 -127 -275 -11 -48 -41 -167 -61 -244
-13 -50 -22 -91 -21 -93 3 -2 43 51 142 187 30 41 67 93 83 115 29 40 40 94
57 276 2 24 7 61 10 82 4 20 5 37 2 37 -3 0 -41 -38 -85 -85z"></path>
<path d="M6768 16053 c-89 -91 -151 -204 -188 -340 l-17 -61 106 -104 c161
-157 133 -147 237 -85 49 29 128 75 176 101 48 26 97 55 109 65 l22 17 -64 81
c-35 44 -118 148 -183 231 -66 84 -125 152 -131 152 -6 0 -36 -26 -67 -57z"></path>
<path d="M12315 16010 c-27 -43 -57 -81 -65 -84 -8 -2 -62 -6 -120 -8 l-105
-3 -3 53 c-2 28 -5 52 -7 52 -2 0 -24 -14 -47 -30 -100 -70 -358 -247 -414
-284 l-62 -41 -7 -68 c-3 -38 -5 -70 -3 -71 2 -1 58 3 125 7 l122 9 7 69 c6
64 9 71 48 106 23 21 46 39 51 40 6 1 57 4 115 7 210 10 316 17 345 22 31 4
31 4 49 112 10 59 21 126 26 150 4 23 5 42 1 42 -3 0 -28 -36 -56 -80z"></path>
<path d="M19085 16013 c-16 -10 -79 -38 -139 -65 -60 -26 -114 -54 -118 -62
-9 -16 15 -76 30 -76 5 0 48 14 97 30 49 17 94 30 101 30 11 0 109 -208 102
-216 -22 -21 -1002 -424 -1068 -439 -30 -7 -32 -5 -52 44 -12 28 -30 53 -39
56 -26 9 -79 -22 -79 -45 0 -10 17 -56 38 -102 22 -46 58 -134 82 -196 47
-123 65 -140 115 -108 29 19 31 39 9 91 -8 21 -13 44 -10 52 3 8 41 30 83 49
151 69 983 414 999 414 6 0 74 -187 74 -205 0 -16 -22 -31 -95 -68 l-95 -47
17 -37 c10 -21 18 -40 20 -42 2 -3 257 86 311 109 12 5 22 18 22 28 0 10 -40
110 -88 222 -49 113 -122 288 -162 390 -40 102 -78 191 -83 198 -13 16 -36 15
-72 -5z"></path>
<path d="M13410 15884 c-46 -35 -88 -72 -92 -83 -5 -16 -41 -236 -53 -326 -1
-11 -5 -40 -9 -65 l-8 -45 121 120 c100 99 121 125 122 150 0 16 8 82 17 146
16 105 16 119 2 142 l-16 25 -84 -64z"></path>
<path d="M10305 15927 c-46 -25 -103 -75 -95 -83 4 -5 19 -29 33 -54 13 -25
38 -71 56 -102 17 -32 45 -83 61 -113 136 -249 141 -259 150 -270 4 -5 27 -48
52 -95 73 -137 207 -383 223 -410 8 -14 50 -89 93 -167 42 -79 79 -143 82
-143 3 0 16 44 27 98 104 471 100 458 160 544 29 43 53 81 53 85 0 8 -450 313
-461 313 -4 0 -7 -6 -6 -12 0 -7 -1 -77 -1 -155 -2 -157 -3 -158 -61 -129 -26
14 -28 20 -34 93 -4 43 -9 89 -12 103 -40 200 -115 353 -216 444 -67 60 -80
67 -104 53z"></path>
<path d="M14885 15763 c-50 -86 -109 -190 -133 -232 -47 -82 -47 -82 63 19 33
30 96 86 140 125 81 71 224 215 225 226 0 6 -111 19 -170 19 -36 0 -36 -1
-125 -157z"></path>
<path d="M15550 15879 l-115 -9 -40 -46 c-70 -81 -283 -349 -280 -352 2 -3 53
30 330 219 83 56 176 119 207 140 31 21 59 43 63 49 7 11 3 11 -165 -1z"></path>
<path d="M15806 15795 c-19 -156 -27 -265 -18 -265 4 0 78 22 165 48 l157 47
85 100 c47 55 85 102 85 105 0 3 -106 5 -235 5 l-235 0 -4 -40z"></path>
<path d="M16490 15769 c-30 -28 -85 -76 -121 -108 l-66 -58 191 -17 c105 -9
201 -19 213 -21 18 -4 6 18 -63 122 -47 71 -88 129 -92 130 -4 1 -32 -21 -62
-48z"></path>
<path d="M14610 15708 c-182 -142 -216 -174 -251 -235 -18 -32 -70 -120 -116
-196 -45 -76 -78 -137 -74 -135 23 8 388 324 402 347 33 55 161 303 157 305
-1 2 -55 -37 -118 -86z"></path>
<path d="M13015 15734 c-33 -19 -67 -39 -75 -44 -8 -5 -31 -18 -50 -28 -19
-10 -60 -32 -90 -49 -30 -17 -86 -47 -125 -68 -38 -21 -75 -42 -81 -46 -6 -5
-35 -22 -65 -38 l-54 -29 -17 -73 c-10 -41 -20 -84 -23 -97 -5 -22 -4 -23 39
-17 25 2 118 12 208 20 90 8 195 19 233 25 39 5 95 12 124 15 30 3 57 7 59 10
6 6 -10 455 -17 455 -3 -1 -33 -16 -66 -36z"></path>
<path d="M3720 15633 c-6 -27 -25 -79 -41 -118 -16 -38 -29 -75 -29 -82 0 -7
15 -19 33 -26 25 -11 61 -57 173 -223 128 -190 244 -373 244 -386 0 -6 -315
107 -422 152 -46 19 -78 38 -80 48 -2 9 2 37 9 61 7 24 13 48 13 52 0 12 -71
32 -80 23 -4 -5 -22 -54 -40 -109 -18 -54 -50 -142 -72 -194 -42 -103 -40
-113 15 -126 25 -7 29 -4 48 43 12 28 27 53 35 56 21 8 130 -28 600 -199 439
-161 527 -195 538 -214 4 -6 0 -34 -9 -61 -19 -56 -16 -64 24 -78 38 -13 41
-9 76 98 16 47 47 133 70 192 23 58 39 110 36 115 -3 6 -21 15 -39 21 -32 11
-34 10 -48 -23 -8 -19 -14 -38 -14 -43 0 -5 -8 -16 -19 -26 -17 -16 -28 -13
-187 43 -272 95 -345 123 -339 130 4 3 182 65 397 136 l390 131 33 89 c18 50
36 98 40 107 5 13 -2 21 -30 35 -36 17 -37 17 -51 -2 -7 -11 -17 -25 -22 -31
-12 -13 -817 -287 -831 -283 -11 4 -256 411 -309 514 -39 74 -43 98 -27 153
12 39 12 43 -8 57 -42 29 -63 20 -77 -32z"></path>
<path d="M8255 15489 c-27 -5 -88 -17 -135 -25 -47 -9 -107 -20 -135 -25 -27
-5 -87 -16 -132 -24 -46 -9 -102 -18 -125 -21 -24 -3 -46 -9 -51 -13 -4 -4
135 -146 309 -315 l316 -309 82 6 c44 3 162 11 261 17 99 6 226 14 282 18
l102 7 -342 348 c-241 246 -348 347 -362 346 -11 -1 -42 -5 -70 -10z"></path>
<path d="M11665 15480 c-100 -25 -209 -102 -290 -204 -30 -38 -55 -73 -55 -77
0 -4 15 -18 33 -31 29 -21 42 -23 157 -23 191 1 354 43 552 142 95 47 268 159
268 173 0 4 -65 8 -145 9 -80 1 -198 6 -262 11 -136 11 -215 11 -258 0z"></path>
<path d="M15865 15480 c-90 -5 -109 -10 -190 -49 -49 -24 -105 -50 -124 -58
-18 -8 -32 -16 -30 -17 2 -2 84 0 182 5 l177 8 70 61 c64 54 68 60 43 58 -16
0 -73 -4 -128 -8z"></path>
<path d="M8788 15445 c3 -5 19 -28 36 -50 17 -22 34 -44 38 -50 4 -5 20 -25
35 -44 31 -38 126 -161 283 -365 l105 -136 239 0 c263 0 232 6 411 -75 28 -12
51 -19 53 -14 2 4 -32 75 -76 156 -43 82 -87 171 -97 197 -52 136 -157 240
-320 316 l-100 47 -165 8 c-411 19 -448 20 -442 10z"></path>
<path d="M16495 15403 c-16 -1 -103 -7 -193 -12 l-163 -9 -142 -79 c-132 -74
-144 -83 -177 -135 -19 -31 -72 -114 -117 -184 -45 -71 -81 -130 -79 -131 1
-2 45 15 97 37 52 23 151 64 221 92 l128 51 -20 26 c-12 14 -32 42 -45 63 -13
20 -29 39 -35 43 -5 3 -10 17 -10 30 l0 25 223 2 222 3 52 75 c53 76 76 111
71 108 -2 0 -16 -3 -33 -5z"></path>
<path d="M6423 15356 c-46 -52 -96 -141 -123 -222 -11 -32 -19 -58 -18 -60 4
-3 297 190 297 196 0 3 -25 34 -57 69 l-59 63 -40 -46z"></path>
<path d="M7334 15343 c-44 -19 -99 -42 -124 -53 -25 -10 -74 -31 -110 -47 -36
-16 -91 -40 -122 -53 -32 -13 -58 -28 -58 -32 0 -5 8 -21 19 -36 10 -15 67
-101 126 -192 59 -91 159 -243 222 -337 62 -95 116 -179 119 -188 4 -8 11 -15
18 -15 11 0 138 48 316 121 52 21 117 46 144 56 27 10 48 23 46 28 -2 6 -119
184 -261 397 l-257 386 -78 -35z"></path>
<path d="M13470 15350 l-45 -18 0 -76 c0 -42 2 -175 3 -295 l2 -220 128 55
c70 30 144 62 165 71 20 9 37 19 37 23 0 4 -49 13 -108 20 l-109 12 -6 151
c-4 82 -7 181 -7 218 0 37 -3 70 -7 72 -5 3 -28 -3 -53 -13z"></path>
<path d="M16630 15278 c-47 -39 -127 -104 -177 -145 -51 -41 -93 -79 -93 -83
0 -4 31 -40 68 -80 l68 -73 29 15 c17 8 79 32 138 53 l109 38 -5 36 c-20 163
-42 311 -47 310 -3 0 -43 -32 -90 -71z"></path>
<path d="M15170 15285 c-69 -29 -233 -107 -365 -172 -132 -66 -336 -166 -452
-223 -117 -57 -213 -108 -213 -112 0 -5 5 -6 10 -3 6 3 52 10 103 15 182 18
200 22 251 45 28 13 98 44 156 70 58 26 130 58 160 72 30 14 69 31 85 38 17 7
101 44 189 84 87 39 168 71 180 71 11 0 63 -32 114 -70 51 -39 97 -70 101 -70
5 0 12 27 15 61 4 33 9 66 12 72 2 7 -19 30 -48 52 -29 22 -55 42 -58 45 -6 6
-89 63 -105 73 -6 3 -67 -19 -135 -48z"></path>
<path d="M9977 15153 c13 -38 29 -77 33 -88 5 -11 27 -69 49 -130 82 -228 76
-217 138 -263 32 -24 130 -97 218 -163 88 -66 171 -128 185 -139 14 -10 64
-48 113 -84 48 -37 87 -63 87 -58 0 26 -128 287 -198 402 -126 210 -278 390
-393 468 -35 24 -240 122 -254 122 -2 0 8 -30 22 -67z"></path>
<path d="M13167 15099 c-21 -41 -47 -90 -58 -109 -102 -180 -189 -365 -189
-402 0 -10 160 -11 249 -2 l61 7 -6 236 c-3 130 -9 260 -13 290 l-6 54 -38
-74z"></path>
<path d="M12945 15145 c-27 -7 -102 -25 -165 -40 -63 -14 -171 -40 -240 -56
-69 -16 -134 -31 -145 -34 -11 -3 -43 -10 -72 -15 l-51 -11 -43 -97 c-23 -53
-59 -133 -80 -177 -62 -133 -129 -285 -129 -291 0 -7 63 3 100 15 14 5 79 23
145 41 66 17 161 43 211 57 l92 25 128 172 c71 94 134 178 141 186 6 8 40 53
75 100 34 47 66 87 69 90 11 9 30 50 22 49 -4 -1 -30 -7 -58 -14z"></path>
<path d="M6545 15027 c-201 -121 -297 -214 -402 -387 -73 -121 -165 -368 -190
-510 -2 -14 -8 -41 -14 -60 -12 -43 -49 -360 -49 -417 0 -24 3 -43 6 -43 7 0
151 85 341 202 34 21 65 38 68 38 3 0 18 8 33 19 15 10 115 70 222 133 169
100 225 133 308 183 71 43 122 73 152 90 77 44 120 70 120 75 0 4 -299 380
-378 475 -82 99 -132 166 -148 196 l-19 36 -50 -30z"></path>
<path d="M11978 14995 c-2 -3 -33 -5 -69 -6 -100 -1 -298 -18 -364 -31 -72
-13 -175 -63 -231 -111 -22 -20 -59 -63 -81 -96 -46 -69 -63 -142 -83 -356 -7
-66 -15 -140 -20 -165 -5 -25 -7 -46 -6 -48 3 -2 113 59 176 98 91 55 254 138
282 144 19 3 79 7 132 7 53 1 99 6 102 11 3 5 6 51 6 103 l-1 93 47 60 c26 33
93 115 150 181 l103 121 -69 0 c-38 0 -71 -2 -74 -5z"></path>
<path d="M19498 14973 c-24 -6 -32 -42 -20 -86 7 -25 7 -40 -1 -51 -15 -19
-107 -50 -547 -181 -406 -120 -561 -161 -584 -152 -9 4 -25 26 -35 51 -22 49
-35 57 -71 44 -49 -18 -51 -31 -15 -137 18 -53 45 -145 60 -204 15 -59 34
-108 41 -111 23 -9 74 5 84 23 5 10 4 33 -2 57 -6 23 -9 48 -5 56 7 19 189 79
629 207 411 121 497 144 513 137 8 -3 19 -24 26 -48 6 -24 16 -46 23 -50 19
-13 53 -9 76 10 l22 18 -39 124 c-22 69 -48 159 -58 200 -11 41 -23 81 -28 88
-9 12 -36 14 -69 5z"></path>
<path d="M15987 14852 l-119 -119 104 -12 c57 -6 159 -15 228 -20 124 -9 125
-9 158 15 17 14 32 28 32 32 0 4 -16 18 -34 32 -19 14 -81 62 -139 108 -58 45
-107 82 -109 82 -2 0 -56 -53 -121 -118z"></path>
<path d="M15060 14880 c-428 -143 -494 -162 -594 -168 l-100 -5 -95 -87 c-53
-48 -101 -93 -107 -101 -7 -8 -15 -41 -18 -74 -11 -106 -16 -509 -7 -555 5
-25 12 -63 15 -85 33 -209 35 -216 100 -295 33 -41 66 -81 73 -88 10 -11 13
-151 13 -658 l0 -645 27 -82 c15 -45 56 -169 92 -276 l66 -194 190 -98 c160
-83 192 -96 201 -84 6 8 44 50 84 93 40 42 94 100 119 127 105 114 306 330
311 335 30 27 150 169 150 178 0 6 -36 44 -81 84 l-80 73 3 394 3 393 93 87
93 86 -69 56 -69 56 -6 114 c-4 63 -7 131 -7 151 l0 36 134 32 134 32 6 50 c4
28 5 53 2 56 -11 10 -207 25 -216 16 -5 -5 -18 -45 -29 -89 -12 -43 -24 -82
-29 -86 -8 -8 -486 -29 -653 -29 l-104 0 -78 228 -77 227 0 115 0 115 93 106
92 106 88 8 c49 4 92 3 96 -1 5 -5 5 -33 2 -63 l-6 -53 -83 -26 -82 -25 2
-280 3 -280 25 -3 c35 -4 339 -34 493 -48 71 -7 130 -9 132 -6 2 4 6 33 20
180 9 95 27 245 30 248 1 2 15 4 31 5 26 2 29 -2 49 -65 12 -37 25 -71 29 -75
4 -5 5 98 1 227 l-7 235 -201 203 c-111 111 -204 202 -207 201 -3 0 -43 -13
-90 -29z m174 -377 c89 -86 102 -103 112 -146 15 -65 1 -69 -74 -25 -31 18
-79 45 -107 58 -27 14 -52 27 -55 30 -3 3 -18 12 -34 20 -23 12 -33 27 -43 65
-7 28 -11 55 -8 62 3 9 57 27 99 32 5 1 54 -43 110 -96z m-106 -212 c2 -13 0
-27 -5 -31 -4 -4 -50 -11 -100 -15 l-93 -7 0 27 c0 31 9 35 102 45 90 9 92 9
96 -19z m210 -149 c3 -42 3 -43 -25 -36 -41 10 -43 12 -43 50 0 34 1 35 33 32
30 -3 32 -6 35 -46z m-427 -13 c4 -13 13 -46 21 -73 10 -38 21 -54 46 -69 17
-10 32 -23 32 -28 0 -5 5 -9 11 -9 6 0 23 -9 39 -20 15 -11 29 -17 32 -15 2 2
22 -2 43 -9 31 -11 41 -20 43 -39 3 -28 23 -27 -218 -9 l-85 7 -3 134 c-1 74
0 141 3 149 7 20 28 10 36 -19z m70 -2191 c5 -7 8 -42 7 -78 -3 -53 -6 -65
-20 -65 -9 0 -20 -4 -24 -8 -4 -4 -27 -7 -51 -7 l-43 0 0 -39 c0 -22 -5 -43
-10 -46 -20 -13 2 -25 45 -25 50 0 51 -1 60 -100 5 -59 3 -67 -19 -92 -14 -16
-30 -28 -36 -28 -6 0 -44 26 -84 58 -41 31 -111 84 -156 117 -88 65 -94 72
-104 126 -6 34 -4 38 21 48 31 12 87 44 163 90 28 17 50 27 50 23 0 -4 4 -2 8
3 4 6 21 18 37 28 35 21 142 18 156 -5z"></path>
<path d="M8870 14676 c-92 -21 -130 -36 -434 -164 l-38 -16 58 -55 c33 -30
136 -127 229 -216 269 -256 289 -275 305 -275 8 0 64 9 123 20 60 11 152 22
205 25 53 2 194 9 312 15 261 13 327 19 311 29 -7 5 -78 73 -159 153 -194 191
-326 313 -379 349 -164 114 -386 170 -533 135z"></path>
<path d="M15787 14609 c-48 -44 -87 -86 -87 -93 0 -11 73 -152 84 -164 6 -6
235 172 236 183 0 6 -33 43 -73 83 l-73 72 -87 -81z"></path>
<path d="M9547 14610 l1 -70 134 -128 c73 -70 171 -164 218 -207 47 -44 109
-102 138 -129 42 -40 200 -146 217 -146 2 0 24 -13 48 -30 25 -16 48 -30 51
-30 6 0 51 -27 132 -77 10 -7 35 -20 54 -29 19 -10 43 -24 53 -32 22 -19 30
-11 18 19 -5 13 -26 78 -46 144 -100 325 -108 346 -145 367 -31 16 -327 160
-555 268 -44 21 -131 63 -194 94 -62 31 -116 56 -120 56 -3 0 -5 -31 -4 -70z"></path>
<path d="M13567 14623 c-34 -32 -88 -83 -120 -113 l-59 -55 7 -145 c4 -80 7
-167 6 -194 -1 -27 1 -67 4 -89 l7 -39 41 63 c22 35 55 87 72 114 18 28 67
106 110 175 43 69 91 145 107 169 l30 44 -63 63 c-35 35 -67 64 -72 64 -5 0
-36 -26 -70 -57z"></path>
<path d="M16450 14572 c0 -5 -14 -27 -32 -50 l-32 -42 -131 0 -131 0 -68 -69
-69 -70 139 -149 c76 -83 144 -150 149 -151 12 -1 105 86 105 98 0 5 -34 66
-77 135 -45 75 -73 130 -67 135 5 5 49 12 99 16 49 4 92 9 94 11 3 3 51 -41
108 -98 56 -56 106 -98 110 -94 7 7 33 49 77 127 l15 26 -135 92 c-129 87
-154 101 -154 83z"></path>
<path d="M17043 14524 c-52 -97 -120 -228 -140 -267 -23 -44 -24 -53 -17 -156
l7 -108 53 3 54 4 0 -70 c0 -68 -1 -72 -54 -151 l-54 -80 40 -59 41 -58 86 -7
c47 -3 102 -7 121 -8 l35 -2 8 262 8 263 -70 177 c-39 98 -79 200 -89 227 -17
44 -20 48 -29 30z"></path>
<path d="M12894 14463 c-28 -35 -74 -101 -214 -307 -30 -45 -90 -132 -133
-195 -43 -62 -77 -114 -75 -116 7 -6 224 -38 343 -50 l60 -6 137 111 c135 109
137 111 144 158 3 26 13 83 20 127 29 159 45 277 40 282 -3 3 -50 10 -103 14
-54 4 -118 11 -143 14 -44 6 -47 5 -76 -32z"></path>
<path d="M3302 14393 c-5 -10 -12 -43 -15 -73 -4 -30 -14 -82 -22 -114 -9 -33
-14 -65 -11 -72 3 -7 21 -16 41 -20 23 -4 46 -19 68 -44 17 -20 97 -106 177
-191 155 -164 254 -279 247 -285 -7 -7 -462 83 -487 96 -21 11 -22 17 -16 75
l6 63 -41 7 c-23 4 -45 3 -51 -3 -5 -5 -18 -61 -28 -125 -11 -64 -28 -154 -39
-201 -11 -47 -18 -92 -15 -100 6 -15 68 -31 84 -21 5 3 12 22 16 43 10 54 22
72 48 72 26 0 233 -35 436 -75 74 -14 230 -44 345 -65 229 -44 342 -68 365
-81 11 -6 15 -25 15 -70 l0 -62 34 -9 c47 -13 56 1 70 104 6 48 23 140 37 205
25 112 25 117 8 130 -10 7 -32 13 -50 13 -30 0 -32 -2 -40 -51 -5 -29 -16 -56
-25 -62 -12 -8 -80 1 -245 31 -323 59 -304 51 -214 97 41 20 120 61 175 90 90
47 206 108 422 219 l71 38 7 61 c4 34 13 82 21 105 15 51 11 68 -19 76 -44 12
-62 6 -77 -26 -13 -26 -49 -49 -220 -140 -113 -60 -252 -134 -310 -165 -58
-30 -137 -73 -176 -94 l-71 -39 -149 177 c-176 210 -256 310 -274 343 -7 13
-12 49 -11 81 1 63 1 63 -46 73 -25 6 -34 3 -41 -11z"></path>
<path d="M8057 14363 c-3 -3 -456 -95 -494 -101 -18 -2 -33 -8 -33 -13 0 -5
29 -46 65 -91 36 -46 85 -108 109 -138 236 -302 232 -298 325 -342 140 -66
205 -86 263 -82 105 7 176 43 307 153 41 34 83 69 95 77 24 17 33 6 -124 144
-41 36 -136 119 -210 185 -227 202 -244 215 -274 213 -15 -1 -28 -3 -29 -5z"></path>
<path d="M12503 14313 c-5 -2 -114 -12 -243 -23 -472 -42 -422 -34 -450 -71
-14 -18 -80 -100 -148 -182 -67 -83 -119 -153 -115 -157 4 -3 141 -4 304 -2
l296 4 219 219 c215 215 217 218 181 216 -20 -1 -40 -3 -44 -4z"></path>
<path d="M11300 14121 l-215 -117 -3 -92 -3 -92 48 -29 c26 -16 51 -27 55 -25
8 5 107 140 207 282 29 43 73 103 97 135 24 31 40 57 36 56 -4 0 -104 -53
-222 -118z"></path>
<path d="M19150 14204 c-14 -2 -56 -9 -95 -15 -300 -48 -549 -223 -612 -429
-26 -81 -23 -227 6 -310 90 -264 380 -426 726 -407 442 24 727 251 727 579 0
269 -140 461 -400 548 -78 26 -113 32 -210 35 -64 2 -128 2 -142 -1z m314
-195 c127 -23 217 -84 263 -177 25 -50 28 -68 28 -152 0 -87 -3 -100 -30 -148
-82 -149 -303 -261 -575 -293 -363 -42 -581 78 -581 319 0 143 110 274 305
362 181 82 427 119 590 89z"></path>
<path d="M15810 14130 c-52 -19 -103 -39 -113 -43 -16 -6 -16 -10 8 -54 77
-147 93 -168 122 -166 40 2 233 39 239 46 3 3 -32 61 -78 129 l-83 125 -95
-37z"></path>
<path d="M7075 14011 c-99 -48 -264 -129 -367 -180 -104 -50 -188 -96 -188
-101 0 -5 9 -15 20 -23 19 -13 98 -88 508 -477 95 -91 183 -171 196 -179 26
-16 4 -26 296 139 231 131 232 131 265 151 37 22 60 35 150 84 39 20 74 41 78
45 5 4 -11 23 -35 41 -24 19 -52 42 -63 51 -11 9 -67 54 -125 99 -58 46 -205
163 -328 261 -122 98 -223 178 -225 178 -1 -1 -83 -40 -182 -89z"></path>
<path d="M10801 13944 c-110 -20 -107 -17 -78 -67 13 -23 44 -78 67 -122 24
-44 77 -141 118 -215 95 -170 143 -258 184 -337 18 -34 33 -61 35 -60 1 2 -40
185 -92 408 -52 222 -95 405 -95 407 0 5 -71 -1 -139 -14z"></path>
<path d="M16425 13930 c-50 -18 -161 -52 -180 -56 -11 -2 -128 -37 -133 -39
-1 -1 -5 -22 -8 -46 -3 -24 -12 -88 -20 -141 -8 -54 -14 -102 -14 -107 0 -8
208 -6 216 2 2 1 5 56 7 122 l4 120 100 3 100 3 12 69 c6 38 11 74 11 79 0 15
-37 12 -95 -9z"></path>
<path d="M11397 13689 l-148 -164 108 -6 c59 -4 182 -9 273 -13 l165 -6 108
162 108 163 -133 6 c-73 4 -178 10 -233 14 l-100 7 -148 -163z"></path>
<path d="M13186 13758 c-3 -50 -6 -180 -6 -288 l0 -198 79 52 c43 28 86 56 95
61 13 8 18 45 27 214 6 112 7 207 2 211 -8 6 -157 40 -179 40 -7 0 -14 -37
-18 -92z"></path>
<path d="M9565 13806 c-89 -16 -143 -32 -202 -57 l-47 -20 139 -139 c77 -77
144 -140 150 -140 11 0 177 51 265 81 30 10 96 30 145 45 50 14 93 29 98 33
11 11 -82 103 -137 136 -111 65 -265 88 -411 61z"></path>
<path d="M6341 13679 c-27 -22 -159 -142 -338 -307 -108 -100 -122 -117 -118
-140 3 -15 7 -69 8 -121 l3 -94 121 -116 120 -116 2 -49 1 -49 -96 7 -97 7 6
-133 c6 -117 11 -144 40 -223 19 -49 37 -89 41 -88 5 1 32 30 62 65 l53 63
-23 25 c-44 48 -56 74 -56 122 0 26 4 50 10 53 5 3 56 -2 113 -11 l102 -17 90
31 c95 33 392 137 486 170 80 29 114 48 154 88 65 65 50 90 -132 223 -56 40
-110 81 -120 90 -10 9 -31 27 -48 39 -58 45 -217 208 -265 272 -62 85 -81 124
-89 181 l-6 47 -24 -19z"></path>
<path d="M10348 13664 c-38 -19 -68 -38 -68 -42 0 -4 41 -38 91 -77 50 -38
120 -92 154 -120 35 -27 76 -60 92 -71 15 -12 73 -56 127 -99 54 -42 90 -66
80 -52 -10 14 -57 73 -104 133 -47 59 -103 131 -125 159 -137 177 -160 205
-170 204 -5 0 -40 -16 -77 -35z"></path>
<path d="M12285 13670 c-27 -15 -99 -53 -160 -85 -136 -72 -139 -74 -124 -91
6 -8 15 -14 20 -14 5 0 33 -16 63 -35 30 -19 57 -35 60 -35 2 0 31 -17 63 -38
81 -54 90 -56 123 -30 30 25 335 243 376 269 14 9 21 20 16 23 -9 5 -93 21
-302 57 -72 12 -77 11 -135 -21z"></path>
<path d="M12982 13621 c-4 -12 -64 -81 -133 -154 -69 -72 -142 -151 -163 -174
l-38 -42 29 -7 c15 -4 88 -22 162 -40 74 -19 135 -33 137 -32 5 7 26 460 20
465 -3 3 -9 -4 -14 -16z"></path>
<path d="M8859 13576 c-42 -24 -142 -74 -222 -111 -80 -38 -144 -72 -141 -76
2 -4 30 -13 62 -19 31 -7 80 -20 107 -30 84 -31 214 -53 269 -45 127 16 281
81 359 149 l37 33 -52 22 c-29 13 -87 35 -128 51 -41 15 -95 37 -120 49 -63
29 -84 26 -171 -23z"></path>
<path d="M15830 13540 c-14 -4 -62 -18 -107 -30 -46 -13 -83 -26 -83 -29 0 -3
54 -60 120 -126 l120 -120 0 158 c0 167 1 164 -50 147z"></path>
<path d="M17101 13498 c7 -13 38 -61 70 -108 l57 -85 7 -128 c7 -111 10 -127
24 -123 9 3 37 10 64 17 43 10 50 18 49 49 -1 29 -35 346 -37 349 -2 1 -48 12
-102 22 -54 10 -108 21 -121 24 -21 5 -22 4 -11 -17z"></path>
<path d="M10075 13344 c-93 -40 -174 -75 -180 -77 -5 -3 24 -14 65 -26 155
-45 209 -60 340 -96 74 -20 146 -41 160 -45 14 -5 38 -11 55 -15 l29 -6 -19
22 c-11 13 -24 28 -30 35 -5 6 -57 72 -115 147 -58 75 -112 136 -120 136 -8 0
-91 -34 -185 -75z"></path>
<path d="M11475 13359 c-60 -28 -134 -61 -164 -75 l-53 -24 68 -78 c37 -42 73
-83 80 -91 10 -11 28 -1 105 58 51 40 99 70 108 69 12 -3 14 -22 12 -120 -2
-94 0 -117 11 -114 7 3 87 7 177 11 97 3 173 11 186 18 40 21 265 172 265 177
0 3 -50 37 -110 76 l-110 71 -82 -69 -83 -68 -70 2 -70 3 -12 93 c-6 51 -13
95 -15 96 -1 2 -32 6 -68 9 -62 5 -70 3 -175 -44z"></path>
<path d="M16247 13296 c-119 -81 -117 -75 -17 -91 47 -7 124 47 134 95 8 43 8
70 -1 70 -5 0 -57 -34 -116 -74z"></path>
<path d="M16915 13360 l-140 -5 -42 -125 c-24 -69 -43 -127 -43 -130 0 -3 43
-4 95 -2 l95 3 10 -27 c6 -15 9 -32 7 -38 -2 -6 -57 -29 -122 -51 l-117 -40
-50 -94 c-27 -51 -47 -95 -45 -97 3 -3 252 115 387 184 l35 17 -2 104 -1 103
44 -6 44 -6 0 110 c0 61 -3 109 -7 108 -5 -1 -71 -5 -148 -8z"></path>
<path d="M8105 13219 c-60 -38 -119 -73 -130 -79 -11 -6 -74 -44 -140 -85 -66
-40 -167 -102 -224 -136 -91 -53 -102 -63 -85 -72 10 -6 21 -13 24 -17 3 -3
49 -37 104 -75 54 -39 107 -76 118 -84 17 -12 26 -12 71 7 29 11 106 42 172
67 66 26 158 61 205 79 47 19 93 36 102 39 18 6 79 84 141 182 22 33 48 70 60
82 11 13 18 25 15 28 -9 9 -303 135 -313 134 -5 -1 -59 -32 -120 -70z"></path>
<path d="M9299 13216 c-87 -25 -198 -88 -247 -139 l-34 -35 49 -43 c26 -24 80
-74 118 -111 l71 -67 168 -23 168 -22 57 29 c117 62 386 216 388 223 5 13
-181 117 -274 153 -157 61 -332 74 -464 35z"></path>
<path d="M13130 13113 c-24 -60 -51 -126 -60 -148 -36 -84 -41 -98 -36 -103 5
-4 70 -4 251 1 l60 2 -4 45 c-2 25 -5 61 -6 80 -1 19 -5 79 -10 133 l-8 97
-71 0 -72 0 -44 -107z"></path>
<path d="M12505 13163 c-16 -14 -70 -63 -120 -109 -49 -45 -102 -93 -117 -106
-34 -29 -36 -40 -5 -29 12 4 45 11 72 15 28 4 104 18 170 31 66 13 163 31 215
40 52 10 99 22 105 26 5 6 5 9 -2 9 -6 0 -44 19 -85 43 -112 67 -186 107 -195
107 -4 0 -21 -12 -38 -27z"></path>
<path d="M15896 13173 c-4 -4 26 -98 52 -165 l11 -27 72 75 c40 40 70 76 68
79 -7 7 -198 42 -203 38z"></path>
<path d="M3095 13128 c-2 -7 -6 -61 -9 -120 -3 -58 -11 -152 -17 -208 -6 -61
-6 -107 -1 -112 5 -5 29 -10 53 -11 l43 -2 4 50 c6 80 2 79 206 71 99 -4 182
-8 185 -10 3 -2 71 -7 151 -10 80 -4 154 -9 165 -11 11 -2 65 -7 120 -10 118
-7 296 -23 343 -31 39 -8 56 -35 49 -80 -4 -22 -1 -37 9 -45 21 -17 70 -21 82
-6 5 6 12 72 16 144 4 73 11 167 16 209 11 89 5 104 -44 104 -42 0 -56 -16
-56 -61 0 -67 -13 -72 -179 -64 -80 3 -164 8 -186 10 -22 2 -80 7 -130 10 -49
3 -117 8 -150 10 -88 6 -198 14 -300 20 -111 8 -256 24 -267 31 -4 3 -8 27 -8
54 0 71 -6 80 -51 80 -23 0 -41 -5 -44 -12z"></path>
<path d="M15613 12994 l-83 -89 0 -104 0 -105 93 89 c50 49 93 90 94 90 1 1
-3 48 -10 105 l-12 104 -82 -90z"></path>
<path d="M10584 12992 c-10 -10 -109 -91 -219 -181 -110 -90 -202 -166 -204
-168 -2 -1 -2 -5 1 -8 5 -5 24 1 83 26 11 5 58 22 105 39 47 17 94 34 105 39
11 5 54 22 95 38 l75 29 2 55 c2 68 -7 149 -16 149 -4 0 -16 -8 -27 -18z"></path>
<path d="M10941 12906 c-12 -34 -34 -92 -48 -131 -14 -38 -31 -83 -38 -100 -7
-16 -17 -42 -20 -57 l-7 -28 58 0 c33 0 100 -4 149 -9 50 -6 150 -13 223 -17
l132 -7 0 64 0 64 -173 115 c-94 63 -190 127 -213 141 l-40 26 -23 -61z"></path>
<path d="M17142 12917 c-5 -6 -31 -52 -57 -102 -26 -49 -50 -93 -53 -97 -7 -7
-126 -23 -236 -32 -61 -5 -64 -8 -111 -76 -63 -93 -64 -94 -176 -110 l-103
-15 -89 -105 -89 -105 109 -8 c59 -4 158 -6 218 -5 l110 3 -90 61 c-49 33 -90
67 -90 75 0 11 29 17 130 26 166 15 205 15 205 3 0 -5 18 -49 40 -97 l41 -88
75 -28 76 -29 56 25 57 24 5 196 5 197 35 29 c19 17 56 47 82 68 26 21 47 40
47 43 0 5 -119 108 -164 142 -18 14 -25 15 -33 5z"></path>
<path d="M11869 12906 c-2 -2 -84 -6 -183 -9 -98 -3 -180 -8 -182 -10 -5 -5
11 -35 56 -107 19 -30 41 -66 48 -80 7 -14 21 -36 32 -50 l19 -25 63 61 c35
34 101 98 148 142 l85 82 -41 0 c-22 0 -43 -2 -45 -4z"></path>
<path d="M8608 12811 c-86 -49 -203 -115 -260 -146 -247 -136 -282 -158 -262
-165 16 -6 187 -47 544 -130 41 -10 87 -21 101 -24 26 -7 55 16 267 217 l64
60 -139 139 c-76 76 -143 138 -148 138 -6 0 -81 -40 -167 -89z"></path>
<path d="M18571 12857 c-6 -9 -10 -73 -10 -176 0 -89 -3 -166 -5 -170 -10 -15
28 -38 66 -40 37 -2 37 -1 43 46 11 83 10 81 82 89 50 5 526 2 893 -6 24 -1
24 -1 5 -12 -11 -6 -211 -124 -445 -261 -530 -312 -634 -379 -648 -415 -22
-55 -33 -115 -24 -124 5 -5 254 -11 593 -13 613 -5 714 -9 736 -27 7 -6 13
-29 13 -53 0 -49 22 -75 61 -71 47 5 48 8 48 187 0 94 2 174 5 176 3 3 1 14
-5 24 -7 14 -21 19 -54 19 -43 0 -44 -1 -50 -37 -13 -81 -17 -95 -28 -99 -7
-2 -230 -3 -497 -2 l-485 3 370 221 c204 122 426 253 495 292 69 38 155 87
192 108 l67 39 3 134 c2 82 -1 140 -7 148 -7 10 -25 13 -50 11 -39 -3 -40 -4
-46 -47 -9 -67 -32 -81 -138 -81 -617 -4 -1041 7 -1072 26 -5 3 -9 27 -9 53 0
26 -5 52 -12 59 -16 16 -73 15 -87 -1z"></path>
<path d="M9855 12789 c-77 -33 -185 -78 -240 -101 -55 -23 -104 -45 -110 -49
-5 -3 -27 -12 -48 -19 -21 -6 -36 -14 -34 -17 3 -2 38 -7 79 -10 40 -3 127
-11 193 -17 66 -7 123 -11 127 -9 6 3 179 258 186 276 6 13 -12 7 -153 -54z"></path>
<path d="M12560 12809 c-63 -4 -173 -10 -243 -14 -74 -4 -133 -12 -140 -19 -7
-6 -54 -42 -105 -80 -51 -38 -89 -73 -85 -77 4 -4 49 -19 98 -33 112 -33 243
-72 316 -96 l55 -17 65 71 c36 39 107 117 158 174 l93 102 -49 -1 c-26 -1
-100 -5 -163 -10z"></path>
<path d="M13037 12710 c-92 -4 -170 -10 -174 -14 -8 -7 -25 -268 -18 -274 5
-5 22 6 164 106 42 29 101 69 131 89 30 20 75 51 99 70 l44 33 -39 -2 c-21 -1
-114 -4 -207 -8z"></path>
<path d="M6923 12648 c-34 -24 -137 -94 -230 -157 -92 -62 -170 -115 -171
-117 -2 -1 27 -17 65 -34 37 -17 76 -36 85 -41 31 -16 161 -50 253 -65 158
-26 352 -2 502 63 47 20 272 192 272 208 0 6 -46 47 -101 93 l-101 82 -126 0
c-69 0 -184 3 -256 5 l-130 5 -62 -42z"></path>
<path d="M15710 12633 c-25 -32 -61 -76 -81 -98 -36 -39 -37 -42 -40 -133 l-4
-92 55 0 55 0 93 139 c50 76 92 141 92 143 0 5 -116 98 -122 98 -2 0 -23 -26
-48 -57z"></path>
<path d="M11760 12536 c0 -1 94 -89 208 -193 l208 -191 98 92 98 91 -143 49
c-79 26 -215 73 -302 102 -158 54 -167 57 -167 50z"></path>
<path d="M10162 12513 c-29 -25 -223 -275 -218 -281 3 -2 35 16 71 42 36 25
68 46 71 46 3 0 32 18 64 40 32 22 62 40 65 40 4 0 21 11 38 24 18 13 60 40
95 61 34 20 62 38 62 40 0 3 -51 5 -114 5 -94 0 -117 -3 -134 -17z"></path>
<path d="M13240 12390 c-85 -66 -155 -123 -155 -128 0 -5 26 -32 57 -61 l56
-51 129 4 c70 2 150 5 177 5 l49 1 -7 79 -6 79 27 6 c59 14 133 39 133 45 0 4
-33 22 -72 41 -40 19 -104 49 -142 67 -38 18 -74 33 -80 32 -6 0 -81 -54 -166
-119z"></path>
<path d="M9122 12360 c-103 -107 -130 -141 -117 -146 9 -4 55 -4 103 -1 48 4
166 7 263 7 l176 0 82 64 c45 35 78 66 74 69 -4 2 -102 34 -216 71 -114 37
-213 69 -220 72 -7 2 -72 -59 -145 -136z"></path>
<path d="M10688 12472 l-126 -3 -84 -92 c-170 -190 -171 -191 -146 -198 21 -5
200 -17 388 -25 41 -1 98 -5 125 -9 48 -5 51 -4 71 27 30 48 124 209 124 213
0 2 11 21 25 41 14 20 25 41 25 46 0 5 -58 8 -137 6 -76 -2 -195 -4 -265 -6z"></path>
<path d="M3057 12459 c-13 -8 -16 -20 -13 -57 2 -26 8 -122 11 -214 4 -92 9
-182 10 -200 2 -18 4 -120 6 -225 1 -148 5 -195 15 -204 9 -7 33 -9 66 -5 29
3 100 9 158 12 57 3 110 10 117 16 7 6 13 26 13 44 0 30 -3 34 -27 35 -76 1
-189 11 -195 17 -4 4 -10 60 -14 125 l-7 117 69 1 c38 0 80 2 94 3 14 2 113 6
220 10 107 4 245 9 305 11 233 11 431 14 465 7 34 -7 35 -10 40 -60 7 -63 17
-74 66 -70 l39 3 -4 225 c-2 135 -8 230 -14 238 -6 8 -26 12 -51 10 l-41 -3
-3 -63 c-3 -54 -6 -64 -25 -71 -23 -9 -146 -17 -382 -26 -77 -3 -185 -7 -240
-10 -55 -2 -200 -7 -323 -11 l-223 -7 3 119 3 118 40 8 c22 3 70 10 108 13
l67 7 0 44 0 44 -137 1 c-76 0 -152 2 -168 4 -17 2 -39 -1 -48 -6z"></path>
<path d="M11296 12381 c-14 -22 -26 -43 -26 -45 0 -3 -32 -60 -71 -128 -39
-68 -74 -127 -76 -131 -4 -6 306 1 314 8 3 2 -106 327 -111 333 -3 2 -16 -14
-30 -37z"></path>
<path d="M11676 12298 c29 -279 134 -550 299 -768 94 -123 228 -245 284 -259
20 -5 110 -25 201 -45 91 -20 212 -48 270 -61 228 -53 205 -52 375 -5 55 15
154 42 220 60 66 18 134 36 150 41 17 5 76 22 132 38 73 21 129 46 198 88 53
32 119 71 146 88 27 16 49 32 49 35 0 3 -75 27 -167 54 -242 69 -233 65 -233
125 0 38 4 53 18 59 9 5 73 13 142 17 69 5 135 9 147 10 29 2 196 154 189 171
-7 18 -149 191 -161 197 -5 2 -61 1 -124 -2 -104 -7 -115 -9 -132 -32 -11 -13
-56 -75 -101 -136 -56 -78 -87 -113 -102 -114 -12 -1 -39 -3 -61 -5 -22 -1
-81 -5 -131 -8 -89 -6 -93 -8 -220 -76 l-129 -70 -392 0 -391 0 -91 98 c-76
82 -155 178 -239 292 -33 45 -92 147 -117 204 -14 31 -27 56 -29 56 -3 0 -3
-24 0 -52z"></path>
<path d="M7795 12302 c-33 -20 -74 -46 -90 -58 -17 -11 -37 -24 -45 -27 -38
-18 -135 -85 -133 -93 3 -9 58 -30 263 -100 58 -20 114 -40 125 -45 34 -15
193 -69 204 -69 12 0 322 272 316 278 -2 2 -37 13 -77 23 -266 71 -466 122
-483 125 -11 2 -47 -13 -80 -34z"></path>
<path d="M12685 12320 c-33 -4 -90 -8 -127 -9 l-66 -1 -6 -62 c-3 -35 -8 -118
-11 -186 l-6 -123 23 5 c21 5 125 16 188 21 14 1 86 8 161 15 l136 13 -29 66
c-17 36 -41 91 -55 121 -37 82 -50 113 -57 133 -6 19 -40 20 -151 7z"></path>
<path d="M6251 12097 c-91 -82 -203 -181 -215 -190 -7 -5 18 -35 69 -82 66
-61 90 -76 139 -90 159 -45 368 35 569 216 l29 27 -90 20 c-114 27 -299 86
-380 123 l-63 28 -58 -52z"></path>
<path d="M8635 11994 c-93 -57 -181 -109 -195 -116 -58 -30 -121 -71 -116 -75
5 -5 110 -15 486 -47 102 -9 197 -18 213 -21 24 -4 27 -1 28 23 0 15 2 41 4
57 9 95 15 235 11 235 -3 0 -35 -18 -72 -41 -36 -22 -76 -39 -88 -37 -14 2
-32 24 -56 65 -19 34 -37 62 -40 62 -3 -1 -81 -48 -175 -105z"></path>
<path d="M9565 12039 c-104 -21 -215 -44 -245 -50 -98 -20 -93 -13 -93 -120
l-1 -94 35 2 c164 8 169 10 264 84 127 98 207 161 229 181 11 10 23 18 28 18
4 0 8 5 8 10 0 14 -10 12 -225 -31z"></path>
<path d="M10055 11970 l-137 -90 344 0 c190 0 386 3 437 7 l92 6 -3 71 -3 71
-260 12 c-143 6 -276 12 -296 12 -30 1 -62 -15 -174 -89z"></path>
<path d="M16147 12019 c-14 -24 -97 -114 -184 -200 l-158 -157 80 -16 c44 -9
187 -38 318 -64 130 -27 237 -47 237 -45 0 2 -5 11 -10 21 -22 39 -70 155 -70
171 0 18 42 54 76 65 16 5 32 -10 89 -85 39 -50 108 -139 154 -198 46 -58 97
-126 114 -151 l31 -44 30 65 c17 35 51 107 75 159 24 52 68 146 98 209 29 62
53 116 53 120 0 4 -19 17 -42 29 -24 12 -94 48 -156 81 l-113 59 -122 6 c-67
3 -201 8 -298 12 l-176 7 -26 -44z"></path>
<path d="M10980 11901 l-94 -48 39 -25 c22 -14 63 -37 90 -53 104 -57 140 -79
156 -92 14 -11 19 -11 36 4 27 24 163 179 163 185 0 3 -37 15 -82 28 -46 12
-103 28 -127 36 -64 20 -76 18 -181 -35z"></path>
<path d="M7165 11896 c-66 -31 -118 -54 -391 -180 -126 -58 -236 -106 -244
-106 -29 0 21 -29 318 -180 l122 -63 63 26 c144 58 369 151 468 193 59 24 124
50 145 58 22 8 63 25 91 38 l53 23 -113 42 c-61 23 -182 69 -267 101 -202 78
-187 75 -245 48z"></path>
<path d="M11530 11693 l0 -171 38 4 c20 2 72 6 115 10 42 3 77 9 77 12 0 4
-52 76 -115 161 l-115 154 0 -170z"></path>
<path d="M10388 11725 c-2 -3 -181 -5 -397 -5 -306 -1 -392 -3 -388 -13 2 -7
42 -66 88 -131 46 -65 98 -137 114 -161 17 -24 49 -70 73 -104 l43 -61 48 37
c109 85 541 435 541 439 0 6 -116 5 -122 -1z"></path>
<path d="M10620 11619 c-52 -38 -119 -86 -148 -106 -30 -21 -83 -59 -118 -85
l-65 -47 48 -6 c26 -3 71 -10 98 -15 28 -5 68 -11 90 -14 78 -10 258 -36 279
-41 12 -2 41 -7 66 -10 25 -3 59 -8 76 -11 28 -5 35 0 75 48 24 29 59 69 77
90 42 46 83 101 78 105 -2 2 -30 13 -62 24 -128 46 -397 139 -398 138 -1 0
-44 -32 -96 -70z"></path>
<path d="M8160 11589 c-30 -17 -93 -52 -140 -76 -47 -25 -107 -58 -135 -73
-27 -15 -90 -49 -140 -75 -49 -26 -120 -65 -157 -86 -36 -22 -72 -39 -78 -39
-6 0 -9 -4 -6 -9 3 -4 31 -11 63 -15 58 -6 198 -27 328 -48 95 -15 94 -15 225
-32 63 -8 153 -22 200 -30 149 -25 178 -28 185 -16 4 6 77 72 163 148 86 75
173 151 192 168 94 84 148 131 179 157 27 23 32 30 20 37 -7 5 -102 9 -209 9
-107 0 -294 2 -415 5 l-220 6 -55 -31z"></path>
<path d="M9111 11308 l-274 -270 94 7 c51 3 96 8 99 10 3 2 77 11 165 19 88 9
183 19 210 21 69 7 229 28 233 30 1 2 -35 72 -81 156 -46 85 -101 187 -122
227 -21 39 -41 72 -44 72 -3 0 -129 -123 -280 -272z"></path>
<path d="M6266 11467 c2 -18 4 -48 5 -67 1 -19 8 -104 15 -189 8 -85 14 -156
14 -159 0 -3 80 -2 178 2 170 7 178 8 203 32 38 36 74 104 56 104 -8 0 -61 17
-118 39 -96 36 -110 45 -194 123 -49 47 -106 98 -126 116 l-35 31 2 -32z"></path>
<path d="M16060 11489 c-113 -3 -213 -7 -223 -8 -18 -1 -22 6 265 -551 41 -80
110 -214 153 -298 44 -84 82 -149 85 -145 4 5 58 75 121 157 63 82 157 205
210 274 95 124 96 126 84 156 -32 75 -134 289 -142 297 -7 7 -288 109 -333
121 -8 2 -107 1 -220 -3z"></path>
<path d="M15585 11419 c-28 -28 -119 -114 -203 -192 l-153 -141 102 -17 c57
-10 133 -20 171 -24 l68 -7 0 -53 c0 -30 -4 -56 -8 -59 -5 -3 -55 1 -113 9
-57 7 -128 16 -156 19 -60 6 -58 9 -67 -103 -5 -75 -14 -52 291 -731 79 -177
86 -191 158 -357 32 -73 59 -133 61 -133 3 0 98 64 197 133 l57 40 0 313 0
312 -40 34 c-38 32 -40 36 -55 132 -9 54 -15 105 -13 114 2 10 19 16 53 19 28
2 53 7 56 11 4 4 -19 59 -50 122 -31 64 -80 167 -110 230 -142 299 -182 380
-189 380 -4 0 -30 -23 -57 -51z"></path>
<path d="M11328 11314 c-54 -42 -96 -80 -93 -84 3 -4 57 -38 121 -75 l116 -68
90 90 90 90 -63 35 c-129 71 -160 88 -162 88 -1 0 -46 -35 -99 -76z"></path>
<path d="M11873 11302 l-73 -3 0 -164 c0 -190 -16 -172 128 -152 l83 12 43 65
43 65 -45 58 c-95 121 -97 122 -179 119z"></path>
<path d="M10209 11196 c-2 -2 -56 -9 -119 -15 -132 -14 -182 -20 -187 -25 -2
-2 36 -39 84 -82 48 -43 125 -115 171 -159 46 -44 92 -84 102 -89 14 -6 31 -2
62 16 24 14 68 39 98 55 63 35 173 95 243 134 38 20 45 27 30 32 -10 3 -103
35 -207 71 -167 58 -259 79 -277 62z"></path>
<path d="M10980 10959 c-47 -39 -104 -89 -127 -110 l-41 -38 51 -5 c29 -3 151
-9 272 -12 338 -11 308 -13 311 16 7 74 7 110 2 115 -3 3 -52 19 -109 36 -57
16 -126 36 -154 45 -110 33 -111 32 -205 -47z"></path>
<path d="M7020 10966 c-46 -11 -157 -51 -235 -86 -11 -5 -58 -23 -105 -40 -47
-17 -102 -39 -122 -48 l-37 -17 116 -80 c64 -44 150 -104 192 -132 42 -29 87
-60 101 -70 298 -208 320 -217 520 -218 99 0 134 4 170 18 105 43 620 456 620
497 0 13 -22 18 -285 71 -55 11 -116 24 -135 29 -19 5 -48 11 -65 14 -49 9
-114 23 -215 46 -120 28 -431 37 -520 16z"></path>
<path d="M12569 10973 l-56 -4 -26 -132 c-14 -73 -24 -134 -22 -136 2 -1 58
14 124 35 l121 37 1 71 c0 39 2 86 3 104 l4 32 -47 -2 c-25 -1 -71 -3 -102 -5z"></path>
<path d="M13065 10953 c-22 -15 -49 -31 -60 -37 -11 -6 -57 -34 -103 -61 l-82
-50 141 -3 c78 -1 143 -1 144 0 6 6 11 178 6 177 -3 0 -24 -12 -46 -26z"></path>
<path d="M11800 10922 c-9 -9 -46 -44 -83 -76 l-67 -59 0 -100 0 -99 48 7 c43
6 56 15 155 113 60 59 110 118 113 132 3 14 8 33 10 42 4 13 -7 20 -48 31 -90
26 -112 27 -128 9z"></path>
<path d="M9656 10863 c-13 -21 -51 -74 -84 -118 -33 -44 -80 -107 -105 -140
-24 -33 -82 -112 -129 -175 -173 -235 -172 -234 -152 -226 22 9 640 149 752
171 40 8 77 17 82 20 10 6 18 57 23 153 l3 63 -90 71 c-50 40 -122 97 -159
127 -126 103 -112 98 -141 54z"></path>
<path d="M9345 10859 c-38 -4 -101 -8 -140 -9 -38 -1 -113 -5 -165 -10 -52 -5
-183 -14 -290 -20 l-195 -11 -70 -68 c-38 -37 -93 -87 -121 -112 -43 -37 -177
-161 -488 -447 l-60 -55 100 7 c54 4 128 9 164 12 36 3 90 6 120 8 201 13 410
28 500 36 58 6 128 10 156 10 59 0 33 -25 329 320 88 102 162 187 165 190 3 3
18 21 34 40 15 19 46 54 68 78 l39 42 -38 -1 c-21 -1 -69 -5 -108 -10z"></path>
<path d="M14964 10802 c-114 -78 -268 -184 -272 -187 -4 -4 47 -103 70 -137
18 -25 21 -26 119 -27 l101 -1 132 -102 c72 -56 135 -107 139 -112 6 -7 7 -5
4 4 -2 8 -25 85 -51 170 -25 85 -55 184 -66 220 -11 36 -31 104 -45 153 -15
48 -27 87 -29 87 -1 0 -47 -31 -102 -68z"></path>
<path d="M12308 10823 c-15 -2 -74 -45 -140 -101 l-113 -97 -3 -51 -3 -51 68
4 c101 6 107 8 130 55 28 55 80 146 99 172 17 25 19 77 2 75 -7 -1 -25 -4 -40
-6z"></path>
<path d="M13262 10747 c-45 -45 -82 -86 -82 -91 0 -17 324 -300 328 -287 2 5
-9 43 -23 83 -14 40 -49 142 -77 226 -28 83 -54 152 -57 152 -4 0 -43 -37 -89
-83z"></path>
<path d="M3765 10776 c-115 -36 -198 -108 -248 -214 -29 -61 -32 -76 -32 -162
0 -82 4 -103 27 -153 54 -115 123 -178 239 -217 89 -31 200 -24 285 16 76 36
157 117 191 191 55 121 41 276 -36 386 -93 133 -279 200 -426 153z"></path>
<path d="M19125 10776 c-115 -36 -198 -108 -248 -214 -29 -61 -32 -76 -32
-162 0 -82 4 -103 27 -153 54 -115 123 -178 239 -217 89 -31 200 -24 285 16
76 36 157 117 191 191 55 121 41 276 -36 386 -93 133 -279 200 -426 153z"></path>
<path d="M10919 10675 c-3 -2 -48 -7 -100 -10 -52 -4 -110 -8 -129 -9 -19 -2
-77 -7 -127 -11 -51 -4 -93 -9 -93 -11 0 -2 35 -74 77 -159 56 -111 82 -154
93 -151 8 2 51 13 95 25 93 24 401 100 430 107 48 10 75 20 75 27 1 5 -39 51
-89 103 l-90 94 -69 0 c-38 0 -71 -2 -73 -5z"></path>
<path d="M12882 10589 c-60 -76 -62 -81 -62 -137 0 -31 4 -62 8 -67 8 -12 282
1 293 13 4 4 1 50 -5 102 -12 104 -10 101 -105 140 -15 5 -35 14 -46 19 -18 8
-29 -2 -83 -70z"></path>
<path d="M11553 10465 l-213 -43 -185 -91 c-102 -50 -187 -91 -190 -91 -2 0
-18 -8 -35 -19 l-31 -18 81 -68 c89 -74 59 -62 350 -139 50 -13 92 -20 95 -16
2 4 7 49 9 101 8 134 17 223 24 230 4 4 60 11 125 17 65 6 122 14 126 17 5 3
16 24 24 48 8 23 22 59 31 80 9 20 13 37 9 36 -5 0 -104 -20 -220 -44z"></path>
<path d="M12500 10455 c-25 -19 -63 -48 -85 -65 -269 -203 -458 -347 -494
-375 -24 -19 -47 -35 -51 -35 -4 0 -10 -6 -13 -12 -3 -10 33 -13 166 -11 l170
2 71 78 c39 43 109 119 156 168 47 50 108 116 137 147 l52 57 -22 41 c-12 22
-26 40 -32 40 -5 0 -30 -16 -55 -35z"></path>
<path d="M14305 10441 c-59 -36 -179 -106 -215 -126 -20 -11 -79 -44 -131 -73
l-94 -54 150 -147 c192 -188 491 -471 498 -471 6 0 14 36 21 95 6 43 36 267
41 300 2 11 9 56 15 100 17 124 19 131 46 144 14 6 29 11 34 11 13 0 13 -282
-1 -489 -12 -183 -15 -157 55 -511 41 -208 76 -373 79 -376 3 -3 358 530 374
559 9 19 24 123 59 412 2 22 7 47 9 55 3 11 -86 107 -266 285 l-270 268 -68
-67 -67 -66 -49 6 c-67 9 -83 21 -130 98 -22 36 -44 65 -50 65 -5 1 -23 -8
-40 -18z"></path>
<path d="M11835 10393 c-16 -27 -42 -69 -57 -94 l-27 -47 -116 -7 -116 -7 7
-88 c3 -48 9 -113 13 -144 l6 -56 60 42 c137 95 202 140 394 273 l203 140 -88
11 c-49 6 -125 14 -169 18 l-80 6 -30 -47z"></path>
<path d="M16102 10190 c1 -93 4 -170 6 -170 7 0 192 183 192 190 0 6 -57 50
-148 114 l-53 37 3 -171z"></path>
<path d="M10489 10346 c-4 -4 -342 -15 -458 -16 l-64 0 6 -312 c4 -171 10
-314 13 -317 3 -3 9 1 14 9 5 8 38 51 74 95 114 142 230 288 281 355 27 36 71
91 98 123 27 32 48 60 45 62 -3 3 -7 3 -9 1z"></path>
<path d="M6800 10335 c0 -4 22 -39 48 -78 78 -116 206 -310 217 -332 6 -11 19
-32 29 -46 l17 -27 130 97 c71 52 124 97 117 100 -11 3 -102 42 -388 168 -19
9 -65 40 -102 70 -38 30 -68 51 -68 48z"></path>
<path d="M12834 10123 c-60 -54 -132 -118 -159 -142 -63 -55 -74 -58 333 97
23 9 42 19 42 23 0 9 -93 119 -100 119 -3 0 -55 -44 -116 -97z"></path>
<path d="M9859 10175 c-3 -2 -16 -6 -29 -9 -48 -9 -115 -25 -155 -35 -85 -23
-692 -170 -725 -176 -19 -3 -43 -9 -52 -11 -10 -3 -77 -69 -150 -147 -72 -78
-170 -183 -217 -233 -47 -49 -131 -139 -186 -200 -55 -60 -122 -133 -149 -161
-46 -50 -47 -52 -20 -43 16 5 67 16 114 24 113 21 127 24 180 35 25 6 176 35
335 66 160 31 319 62 355 70 36 8 92 19 125 25 94 17 109 20 130 27 11 3 117
84 236 179 196 157 217 177 223 210 9 46 5 373 -4 379 -4 3 -9 3 -11 0z"></path>
<path d="M10757 9902 c-4 -87 -7 -334 -7 -550 l0 -394 -66 -265 c-36 -146 -63
-267 -61 -270 7 -6 260 121 315 158 24 16 45 29 48 29 12 0 194 128 281 199
252 203 454 442 571 677 32 64 92 200 92 209 0 3 -63 15 -255 51 -77 14 -194
36 -260 49 -66 13 -172 33 -235 45 -109 21 -120 25 -210 84 -52 34 -120 78
-151 98 l-56 36 -6 -156z"></path>
<path d="M7686 10012 c-3 -5 -65 -56 -138 -113 -73 -56 -135 -105 -138 -109
-3 -3 -23 -19 -45 -35 -22 -17 -68 -52 -103 -79 l-63 -48 208 -124 c114 -68
209 -124 211 -124 2 0 16 -8 30 -19 15 -10 50 -32 78 -49 l51 -30 134 107 c74
59 172 137 219 175 47 37 94 75 105 84 11 9 65 53 120 96 202 160 225 180 225
187 0 8 -52 15 -275 34 -93 8 -228 21 -300 29 -206 24 -312 30 -319 18z"></path>
<path d="M13670 10018 c0 -3 41 -85 92 -184 l92 -179 4 -658 c4 -580 6 -654
19 -630 8 15 20 35 27 43 12 14 83 126 110 175 6 11 30 48 54 82 23 34 42 64
42 66 0 2 19 34 43 69 23 36 62 97 87 137 118 189 130 194 130 54 0 -54 3
-142 7 -195 l6 -97 -112 -114 c-114 -118 -136 -151 -78 -118 26 15 270 142
354 185 23 11 23 13 23 247 l0 236 -450 442 c-247 244 -450 441 -450 439z"></path>
<path d="M13360 9954 c-69 -24 -135 -49 -148 -54 l-23 -10 32 -33 c18 -17 55
-59 82 -92 27 -33 53 -62 56 -65 3 -3 40 -43 81 -90 41 -47 77 -87 80 -90 3
-3 41 -47 84 -97 44 -51 81 -91 83 -90 1 2 -6 36 -18 77 -11 40 -26 101 -33
134 -8 34 -28 115 -46 181 -18 66 -36 138 -42 160 -23 100 -29 115 -46 114 -9
0 -73 -20 -142 -45z"></path>
<path d="M10385 9818 c-60 -37 -130 -89 -153 -115 -55 -59 -186 -234 -287
-383 -43 -63 -106 -151 -139 -195 -34 -43 -68 -89 -76 -102 -8 -12 -76 -104
-151 -205 l-135 -183 -27 -139 c-15 -76 -26 -140 -25 -141 7 -6 153 -65 160
-65 5 0 27 -9 51 -20 54 -25 378 -157 435 -177 36 -13 50 -14 85 -4 102 30
158 98 202 246 14 50 37 124 50 165 14 41 47 147 75 236 l50 161 -2 495 -3
495 -110 -69z"></path>
<path d="M16456 9867 c-17 -13 -13 -52 5 -41 5 3 7 10 4 15 -4 5 0 9 8 9 8 0
17 7 21 15 7 18 -14 20 -38 2z"></path>
<path d="M13018 9832 c-31 -20 -78 -50 -105 -67 l-48 -30 -3 -579 -2 -579 58
-66 c31 -36 90 -105 130 -152 40 -48 79 -92 87 -99 13 -11 26 11 94 151 137
287 192 401 238 504 25 55 50 105 55 112 7 8 -5 40 -37 100 -26 48 -66 122
-88 163 -22 41 -53 100 -70 130 -17 30 -44 82 -62 115 -105 200 -179 335 -184
334 -3 0 -32 -17 -63 -37z"></path>
<path d="M16680 9848 c-36 -5 -79 -10 -96 -12 -17 -1 -56 -15 -87 -29 -152
-69 -294 -203 -424 -397 -68 -102 -273 -477 -273 -499 0 -11 12 -24 31 -31 20
-9 28 -18 24 -28 -9 -25 5 -51 43 -78 37 -27 35 -26 -50 7 -29 11 -49 15 -53
9 -3 -6 -17 -10 -30 -10 -16 0 -26 -8 -33 -27 -6 -16 -11 -22 -11 -15 -2 29
-21 6 -71 -85 -30 -54 -82 -149 -117 -212 -35 -63 -61 -121 -59 -128 3 -7 17
-18 31 -25 19 -9 25 -19 25 -43 0 -41 22 -60 85 -76 28 -7 66 -23 85 -35 19
-13 130 -64 245 -114 116 -51 287 -126 380 -167 94 -42 195 -84 225 -94 30
-11 84 -35 120 -53 87 -45 559 -249 637 -275 79 -27 105 -26 130 2 24 26 109
181 139 252 12 28 38 75 58 105 43 66 47 107 12 141 -17 16 -21 27 -15 35 19
23 -4 40 -124 91 -67 29 -232 100 -367 159 -135 58 -250 108 -257 111 -20 8
-26 -36 -8 -63 25 -39 11 -40 -22 -3 -15 18 -39 44 -53 57 -20 19 -22 25 -10
32 16 10 15 12 -22 28 -19 8 -36 8 -53 2 -16 -6 -25 -6 -25 0 0 6 5 10 12 10
29 0 -23 26 -277 138 -375 166 -416 185 -412 189 2 2 29 -8 61 -22 70 -31 106
-32 133 -2 41 46 104 149 129 211 35 89 143 221 213 259 43 24 69 31 130 35
89 5 57 16 500 -178 237 -104 313 -142 344 -172 l40 -38 -6 -84 c-4 -61 -3
-86 6 -89 7 -3 0 -17 -20 -38 -33 -36 -203 -337 -203 -360 0 -8 13 -21 29 -30
20 -12 29 -24 29 -44 0 -15 8 -35 18 -45 22 -22 231 -118 275 -127 44 -8 72
17 127 114 172 306 277 566 297 739 9 78 -22 211 -71 307 -89 174 -166 263
-280 324 -107 57 -772 343 -831 358 -74 18 -170 23 -253 13z m-690 -1118 c8
-5 11 -10 5 -10 -5 0 -17 5 -25 10 -8 5 -10 10 -5 10 6 0 17 -5 25 -10z m1513
-335 c-22 -29 -33 -32 -33 -7 0 24 8 32 32 32 18 0 18 -1 1 -25z m-53 -100 c0
-14 -32 -66 -37 -61 -8 7 17 66 28 66 5 0 9 -2 9 -5z"></path>
<path d="M15406 9793 c-2 -10 -25 -103 -51 -208 -25 -104 -64 -262 -86 -349
-21 -87 -38 -160 -37 -161 2 -1 89 86 195 194 l191 197 -96 172 c-54 94 -100
171 -104 172 -4 0 -9 -8 -12 -17z"></path>
<path d="M6435 9668 c-27 -51 -60 -115 -75 -143 -15 -27 -60 -113 -100 -190
-40 -77 -92 -176 -115 -220 -125 -236 -636 -1215 -641 -1229 -4 -10 6 -29 25
-51 17 -20 31 -44 31 -54 0 -29 62 -100 107 -122 49 -24 103 -84 103 -114 0
-12 21 -45 48 -74 35 -39 56 -53 82 -57 22 -3 165 22 399 71 200 41 365 74
367 72 1 -1 -69 -141 -158 -310 l-160 -308 27 -35 c24 -31 31 -48 34 -77 2
-18 95 -107 112 -107 27 0 87 -69 100 -113 12 -45 85 -123 123 -133 16 -4 405
72 1048 206 563 116 1038 215 1056 220 20 5 32 5 32 -2 0 -5 -63 -130 -140
-276 -78 -147 -140 -276 -139 -287 3 -29 -11 -55 -25 -49 -7 3 -18 -8 -25 -23
-11 -24 -10 -29 8 -44 21 -18 28 -39 12 -39 -5 0 -14 6 -21 14 -15 19 -34 11
-49 -20 -16 -35 -15 -36 23 -28 47 8 57 0 43 -35 -11 -29 -11 -29 -43 -14 -18
9 -38 13 -46 10 -17 -7 -132 -226 -123 -235 4 -4 12 1 19 10 15 20 26 14 26
-13 0 -15 -6 -17 -30 -13 -25 5 -31 2 -41 -20 -9 -20 -9 -29 1 -41 12 -14 11
-18 -1 -26 -8 -5 -20 -9 -26 -9 -18 0 -46 -47 -39 -65 3 -9 -3 -23 -14 -32
-27 -23 -25 -37 5 -51 15 -7 25 -8 25 -2 0 6 5 10 11 10 7 0 8 -11 4 -29 -12
-55 24 -87 150 -132 82 -29 177 -69 225 -93 74 -38 138 -59 163 -52 15 3 39
31 68 78 53 85 258 470 289 543 12 27 36 74 55 105 63 104 476 895 482 923 4
22 0 34 -22 57 -19 20 -25 34 -20 49 8 25 14 22 -304 155 -195 82 -257 104
-267 95 -7 -6 -45 -71 -84 -145 l-71 -133 -152 167 c-84 92 -168 184 -187 205
-20 22 -42 37 -56 37 -13 0 -108 -18 -211 -40 -205 -43 -896 -186 -1062 -220
-57 -11 -104 -20 -106 -18 -1 2 58 118 132 258 74 140 137 267 140 282 3 18
-2 40 -16 63 -11 20 -21 41 -21 46 0 9 -376 429 -384 429 -5 0 -275 -56 -485
-99 -106 -23 -199 -41 -207 -41 -10 0 -6 15 15 53 133 237 544 1039 548 1070
5 29 1 45 -16 67 -11 16 -21 34 -21 40 0 13 -368 420 -380 420 -4 0 -29 -42
-55 -92z m-582 -1955 c14 -17 13 -19 -9 -36 -24 -18 -24 -18 -34 8 -17 44 12
62 43 28z m864 -957 c-1 -1 -12 -10 -24 -20 -22 -18 -23 -18 -33 9 -8 20 -7
31 1 42 10 11 16 10 35 -8 13 -12 23 -23 21 -23z m1790 -748 c-13 -8 -39 10
-31 23 3 5 14 3 24 -3 13 -9 16 -14 7 -20z"></path>
<path d="M12480 9750 l-245 -5 -3 -58 -3 -57 78 -92 c43 -51 88 -104 99 -118
12 -14 49 -56 83 -95 34 -38 76 -89 94 -112 18 -23 35 -41 40 -40 4 1 37 48
75 103 l67 102 -9 191 c-6 130 -12 190 -20 189 -6 -1 -121 -5 -256 -8z"></path>
<path d="M12132 9538 c-29 -93 -140 -297 -224 -411 -18 -25 -55 -76 -83 -114
-27 -37 -54 -73 -60 -79 -5 -6 -23 -29 -40 -50 -16 -21 -69 -84 -117 -140
l-88 -102 0 -264 c0 -146 3 -306 6 -356 l7 -92 126 0 c157 0 182 11 289 117
109 109 218 250 394 508 161 237 204 334 196 448 -4 60 -7 65 -99 188 -52 69
-128 172 -169 229 -41 56 -86 116 -100 132 l-25 29 -13 -43z"></path>
<path d="M15940 9291 c-11 -21 -4 -51 11 -51 5 0 9 16 7 35 -2 41 -4 42 -18
16z"></path>
<path d="M9418 9211 c-232 -115 -424 -175 -678 -210 -187 -25 -359 -34 -485
-23 -55 5 -101 8 -103 7 -1 -1 84 -53 190 -115 203 -119 301 -177 509 -303
l127 -75 19 21 c25 28 112 141 308 402 87 116 187 247 222 293 36 45 61 82 56
81 -4 0 -78 -35 -165 -78z"></path>
<path d="M12587 8653 c-26 -38 -76 -108 -112 -158 -36 -49 -78 -108 -93 -130
-15 -22 -67 -94 -115 -160 -138 -188 -167 -232 -167 -254 0 -20 5 -21 184 -21
l185 0 206 92 c149 66 209 98 215 112 4 12 12 57 18 100 12 91 22 69 -117 266
-45 63 -97 139 -116 168 -19 28 -36 52 -38 52 -2 0 -25 -30 -50 -67z"></path>
<path d="M13621 8662 c-35 -58 -85 -138 -157 -247 -21 -33 -41 -64 -43 -70 -2
-5 -21 -36 -43 -67 -21 -31 -38 -60 -38 -63 0 -4 -18 -32 -40 -62 -22 -31 -38
-58 -36 -61 2 -2 37 14 78 35 40 22 135 73 212 114 l139 73 -7 116 c-4 63 -11
146 -17 184 -5 38 -7 77 -4 88 12 36 -11 16 -44 -40z"></path>
<path d="M11340 8476 c-19 -13 -73 -43 -120 -68 -47 -26 -143 -79 -215 -118
-135 -75 -236 -130 -393 -215 -50 -27 -92 -53 -92 -56 0 -13 182 -61 285 -76
83 -11 166 -14 334 -11 202 4 225 6 237 23 10 13 13 72 13 248 0 126 3 245 7
263 8 41 -5 43 -56 10z"></path>
<path d="M15243 8177 c-77 -56 -137 -104 -132 -105 16 -6 -1 -22 -24 -22 -12
-1 -61 -30 -109 -65 -73 -54 -85 -68 -81 -86 5 -19 3 -21 -13 -15 -10 4 -22 8
-25 9 -3 1 -37 -21 -75 -49 -38 -27 -93 -67 -121 -88 -47 -33 -52 -40 -42 -58
8 -15 8 -23 0 -31 -9 -9 -13 -6 -17 11 -4 12 -9 22 -13 22 -4 0 -49 -31 -101
-68 -97 -69 -119 -99 -82 -109 12 -3 18 -11 16 -18 -3 -7 -1 -16 5 -19 6 -4
15 -24 21 -44 5 -20 24 -53 41 -72 77 -88 154 -161 176 -166 29 -8 75 20 235
139 62 46 250 182 418 303 168 120 315 229 328 241 28 28 28 66 1 104 -11 16
-17 29 -14 29 9 0 -30 47 -137 163 -49 53 -95 97 -101 97 -7 -1 -76 -47 -154
-103z"></path>
<path d="M15820 7641 c0 -10 -8 -21 -17 -24 -10 -2 -27 -8 -38 -12 -11 -3 -8
1 8 10 30 17 37 38 10 28 -25 -9 -331 -232 -341 -248 -4 -7 -25 -22 -47 -33
-22 -11 -67 -41 -100 -66 -33 -26 -83 -61 -110 -80 -28 -19 -57 -41 -64 -49
-7 -9 -36 -31 -64 -49 -29 -18 -53 -36 -55 -40 -2 -5 -10 -8 -18 -8 -9 0 -12
-4 -9 -10 3 -5 19 -10 36 -10 33 0 37 -10 12 -32 -12 -11 -25 -13 -38 -8 -27
11 -67 12 -84 1 -23 -14 17 -51 56 -51 23 0 33 -5 33 -15 0 -9 -6 -15 -12 -14
-36 4 -36 -4 -4 -62 41 -74 109 -158 152 -188 46 -32 84 -27 135 18 24 21 68
50 96 65 29 14 106 66 170 114 65 49 196 144 292 212 189 133 271 205 271 237
0 39 -56 121 -154 227 -54 58 -103 106 -107 106 -5 0 -9 -8 -9 -19z m-120
-165 c0 -11 -19 -15 -25 -6 -3 5 1 10 9 10 9 0 16 -2 16 -4z m-127 -45 c-3
-12 -16 -21 -34 -23 -35 -5 -37 4 -6 25 30 22 46 21 40 -2z m-371 -243 c-7 -7
-12 -8 -12 -2 0 14 12 26 19 19 2 -3 -1 -11 -7 -17z"></path>
<path d="M14142 7382 l-132 -96 27 -15 28 -15 -27 -10 c-36 -13 -37 -43 -3
-52 35 -9 31 -23 -12 -40 -21 -8 -50 -21 -65 -29 -26 -13 -28 -13 -28 5 0 11
7 20 15 20 16 0 29 21 39 63 6 24 4 27 -18 27 -16 0 -27 -7 -31 -20 -4 -11
-11 -18 -16 -15 -5 4 -30 -9 -56 -27 -26 -18 -51 -36 -57 -40 -5 -4 4 -19 21
-35 17 -16 36 -46 41 -66 14 -50 65 -112 104 -127 18 -6 42 -16 53 -22 11 -6
31 -14 45 -19 24 -7 24 -7 3 -8 -26 -1 -31 -19 -8 -27 8 -3 19 -23 25 -44 11
-40 72 -110 148 -170 24 -19 55 -56 69 -84 14 -28 61 -87 103 -131 43 -44 96
-101 117 -127 64 -78 273 -308 353 -390 41 -42 101 -106 133 -142 69 -78 124
-111 175 -102 74 12 99 50 66 101 -9 13 -13 29 -9 34 3 6 2 18 -3 28 -12 21
27 55 67 58 14 2 34 6 43 10 15 6 16 2 12 -27 -11 -65 53 -76 131 -23 20 14
54 34 75 45 68 35 75 70 30 158 -27 55 -97 132 -119 132 -5 0 -13 11 -18 24
-7 22 -173 212 -314 361 -32 33 -85 92 -119 130 -34 39 -69 72 -78 74 -19 4
-51 41 -52 60 0 15 -273 321 -302 337 -10 6 -18 15 -17 19 3 13 -276 314 -291
313 -8 0 -75 -43 -148 -96z m188 4 c-5 -5 -21 -6 -35 -2 -21 5 -24 10 -16 20
9 11 17 11 36 2 14 -6 20 -15 15 -20z m-163 -78 c-3 -8 -6 -5 -6 6 -1 11 2 17
5 13 3 -3 4 -12 1 -19z m-110 -304 c-3 -3 -12 -4 -19 -1 -8 3 -5 6 6 6 11 1
17 -2 13 -5z"></path>
<path d="M16428 7073 c-46 -33 -60 -53 -38 -53 6 0 10 -4 10 -10 0 -5 -25 -17
-56 -26 -56 -16 -207 -111 -205 -129 0 -5 15 -12 33 -15 33 -6 33 -6 6 -13
-14 -4 -39 -4 -56 -1 -22 4 -33 1 -43 -13 -8 -10 -27 -24 -43 -31 -17 -8 -85
-54 -153 -103 -87 -64 -123 -96 -123 -111 0 -16 -5 -19 -23 -14 -18 4 -33 -3
-62 -29 -21 -20 -54 -43 -72 -52 -45 -21 -52 -41 -23 -63 25 -19 20 -40 -11
-40 -23 0 -23 -3 -4 -41 9 -16 20 -27 25 -24 13 8 13 -9 -2 -56 -10 -35 -9
-42 9 -62 11 -12 28 -36 36 -53 9 -17 34 -47 56 -67 68 -61 134 -48 198 38 19
25 43 45 60 49 40 10 160 89 269 179 33 26 82 60 110 76 60 34 377 262 417
299 30 29 35 67 12 98 -8 10 -15 26 -15 35 0 9 -20 35 -45 58 -25 23 -45 45
-45 49 -1 4 -18 25 -40 46 -33 34 -41 38 -54 27 -14 -12 -16 -9 -16 21 0 36
-25 69 -51 67 -8 0 -35 -16 -61 -36z"></path>
<path d="M10710 6773 c-278 -41 -559 -162 -697 -301 -124 -125 -191 -231 -232
-370 -38 -126 -47 -299 -16 -290 6 2 9 11 8 21 -2 9 2 17 7 17 6 0 10 -13 10
-30 0 -23 -4 -30 -20 -30 -15 0 -20 -7 -20 -24 0 -37 18 -76 35 -76 8 0 15 -4
15 -10 0 -5 -7 -10 -15 -10 -19 0 -19 -14 1 -34 8 -9 12 -20 9 -26 -8 -13 81
-201 131 -276 88 -132 304 -310 466 -383 41 -19 92 -33 134 -37 43 -4 84 -15
109 -30 66 -37 122 -48 180 -34 46 11 55 10 89 -8 21 -11 45 -18 55 -15 35 12
41 35 41 153 0 108 -2 118 -26 153 -14 21 -23 45 -20 52 3 10 -9 18 -42 27
-42 12 -61 33 -30 33 7 0 14 7 16 16 2 11 -13 18 -65 29 -39 7 -106 33 -157
59 -71 36 -98 56 -133 101 -59 72 -67 94 -91 228 l-21 113 20 67 c49 161 90
235 182 318 74 68 209 128 337 149 168 28 173 34 189 203 11 121 5 160 -29
169 -14 4 -20 15 -22 47 l-3 41 -150 1 c-84 1 -192 -5 -245 -13z m134 -1534
c-7 -11 -54 -12 -54 -1 0 15 10 19 35 14 14 -2 22 -8 19 -13z"></path>
<path d="M11221 6771 c-5 -3 -14 -64 -20 -136 -6 -71 -14 -145 -17 -163 -4
-28 -1 -34 21 -42 18 -7 25 -17 25 -35 0 -34 30 -62 82 -75 209 -53 348 -143
448 -290 53 -77 92 -105 150 -105 55 1 428 91 453 110 55 40 -21 183 -188 351
-85 85 -130 122 -200 161 -111 63 -225 114 -344 153 -135 44 -384 87 -410 71z"></path>
<path d="M14062 6444 c-12 -8 -123 -150 -247 -315 -248 -329 -237 -304 -149
-323 30 -7 32 -3 252 289 219 290 244 327 235 353 -6 17 -64 15 -91 -4z"></path>
<path d="M15506 6312 c-9 -14 21 -35 40 -28 8 3 14 12 12 19 -6 15 -44 22 -52
9z"></path>
<path d="M13153 6069 c14 -35 102 -261 196 -503 95 -241 171 -439 169 -440 -2
-1 -68 -22 -148 -46 -80 -24 -164 -51 -187 -60 l-42 -16 19 -32 c34 -56 52
-56 212 -6 78 24 144 44 145 44 8 0 43 46 43 58 0 7 -30 91 -66 185 -73 192
-84 234 -62 242 12 5 243 -74 642 -219 54 -20 115 -36 135 -36 40 0 343 93
379 116 31 20 28 41 -10 65 -40 24 -46 24 -258 -42 l-165 -50 -384 138 -385
138 -37 93 c-21 51 -47 101 -58 110 -10 9 -45 81 -76 159 -32 79 -64 148 -72
154 -9 8 -6 -9 10 -52z"></path>
<path d="M11701 5537 c-5 -13 -5 -27 1 -34 8 -10 4 -13 -14 -13 -22 0 -24 -4
-20 -30 3 -18 0 -30 -7 -30 -6 0 -28 -7 -49 -16 -33 -14 -35 -17 -17 -24 18
-8 17 -9 -7 -9 -15 -1 -56 -17 -91 -36 -35 -19 -88 -42 -118 -51 -30 -9 -69
-24 -86 -35 -18 -10 -33 -14 -33 -8 0 5 -18 9 -40 7 -41 -2 -59 -28 -20 -28
31 0 24 -19 -15 -37 -46 -22 -64 -70 -40 -107 20 -31 12 -50 -15 -36 -30 16
-50 12 -50 -10 0 -11 -4 -20 -9 -20 -11 0 -22 -69 -15 -97 4 -14 14 -23 25
-23 14 0 19 -7 19 -29 0 -20 9 -37 28 -51 26 -21 33 -22 182 -17 177 7 297 28
456 82 202 67 334 144 452 261 51 51 57 92 16 119 -19 12 -23 20 -15 28 6 6
11 16 11 23 0 6 -69 42 -152 79 -414 185 -368 167 -377 142z"></path>
<path d="M11077 5194 c-9 -10 2 -24 19 -24 8 0 14 7 14 15 0 15 -21 21 -33 9z"></path>
<path d="M11070 5116 c0 -8 -3 -21 -6 -30 -4 -11 -1 -16 10 -16 11 0 16 9 16
30 0 17 -4 30 -10 30 -5 0 -10 -6 -10 -14z"></path>
<path d="M6012 2564 c-44 -23 -62 -61 -62 -134 l0 -60 -40 0 -40 0 0 -40 0
-40 40 0 40 0 0 -225 0 -225 55 0 55 0 0 225 0 225 50 0 50 0 0 40 0 40 -51 0
-52 0 6 46 c6 59 18 69 76 68 l49 -2 6 40 c4 23 4 43 1 47 -4 3 -39 7 -78 9
-52 2 -81 -2 -105 -14z"></path>
<path d="M7322 2559 c-199 -64 -281 -326 -176 -560 56 -125 152 -174 323 -167
107 5 153 22 208 80 30 31 83 129 83 154 0 12 -105 38 -119 30 -5 -3 -12 -17
-15 -32 -10 -39 -46 -89 -85 -115 -28 -19 -47 -24 -102 -24 -59 0 -73 4 -110
30 -80 56 -121 187 -99 314 20 114 77 189 162 212 89 23 168 -10 212 -91 29
-54 34 -56 101 -39 l43 11 -14 40 c-21 62 -69 114 -131 144 -76 38 -190 43
-281 13z"></path>
<path d="M3267 2563 c-2 -5 38 -168 89 -363 51 -195 93 -356 94 -357 0 -2 28
-3 63 -3 l63 0 69 253 c37 138 72 268 78 286 6 25 11 31 16 20 4 -7 41 -137
81 -286 l74 -273 63 0 c35 0 63 3 63 6 0 3 43 165 95 360 52 195 95 356 95
359 0 3 -28 5 -62 3 l-62 -3 -17 -70 c-9 -38 -38 -160 -65 -270 -36 -154 -49
-194 -55 -175 -4 14 -38 137 -75 273 l-67 248 -70 -3 -70 -3 -75 -273 c-47
-170 -78 -267 -82 -255 -4 10 -33 134 -65 276 l-59 257 -57 0 c-32 0 -60 -3
-62 -7z"></path>
<path d="M4317 2563 c-4 -3 -7 -168 -7 -365 l0 -358 60 0 60 0 0 365 0 365
-53 0 c-30 0 -57 -3 -60 -7z"></path>
<path d="M4600 2205 l0 -365 55 0 55 0 0 365 0 365 -55 0 -55 0 0 -365z"></path>
<path d="M5170 2456 l0 -115 -47 21 c-37 16 -60 19 -111 15 -87 -7 -136 -41
-177 -122 -26 -53 -30 -69 -30 -151 0 -82 4 -97 30 -150 44 -85 94 -118 189
-122 55 -3 81 0 107 13 23 12 34 14 37 6 2 -6 26 -11 58 -11 l54 0 0 365 0
365 -55 0 -55 0 0 -114z m-48 -203 c75 -72 68 -258 -12 -314 -43 -31 -72 -32
-109 -7 -61 41 -76 71 -80 158 -4 104 21 163 82 190 47 21 76 14 119 -27z"></path>
<path d="M5430 2205 l0 -365 55 0 55 0 0 365 0 365 -55 0 -55 0 0 -365z"></path>
<path d="M5680 2515 l0 -55 55 0 55 0 0 55 0 55 -55 0 -55 0 0 -55z"></path>
<path d="M7870 2515 l0 -55 55 0 55 0 0 55 0 55 -55 0 -55 0 0 -55z"></path>
<path d="M9880 2205 l0 -365 280 0 280 0 0 45 0 45 -220 0 -220 0 0 120 0 120
200 0 200 0 0 45 0 45 -200 0 -200 0 0 105 0 105 210 0 210 0 0 50 0 50 -270
0 -270 0 0 -365z"></path>
<path d="M11670 2205 l0 -365 55 0 55 0 0 365 0 365 -55 0 -55 0 0 -365z"></path>
<path d="M13390 2515 l0 -55 55 0 55 0 0 55 0 55 -55 0 -55 0 0 -55z"></path>
<path d="M15120 2206 l0 -366 178 0 c199 0 251 10 319 59 85 62 136 231 114
378 -15 98 -43 161 -94 211 -66 64 -103 74 -324 79 l-193 6 0 -367z m381 241
c29 -15 54 -40 74 -71 26 -43 30 -59 33 -146 5 -111 -12 -179 -56 -232 -38
-45 -84 -60 -204 -66 l-108 -5 0 272 0 271 108 0 c95 0 115 -3 153 -23z"></path>
<path d="M17330 2205 l0 -365 50 0 c36 0 50 4 50 14 0 11 8 10 37 -5 75 -38
194 -20 257 39 52 49 76 116 76 213 0 105 -20 169 -69 218 -61 61 -179 80
-254 42 l-37 -19 0 114 0 114 -55 0 -55 0 0 -365z m305 52 c94 -94 63 -300
-50 -337 -45 -15 -96 8 -127 59 -19 30 -23 50 -23 121 0 98 17 139 68 170 49
30 93 26 132 -13z"></path>
<path d="M13133 2524 l-43 -25 0 -65 0 -64 -30 0 c-28 0 -30 -2 -30 -40 0 -38
2 -40 30 -40 l30 0 0 -185 c0 -258 9 -275 146 -275 l65 0 -3 42 c-3 39 -6 43
-36 49 -19 4 -39 12 -45 18 -8 8 -13 70 -15 181 l-3 170 45 0 46 0 0 40 0 40
-45 0 -45 0 0 90 c0 102 -2 104 -67 64z"></path>
<path d="M16493 2524 l-43 -25 0 -65 0 -64 -30 0 c-28 0 -30 -2 -30 -40 0 -38
2 -40 30 -40 l30 0 0 -185 c0 -258 9 -275 146 -275 l65 0 -3 42 c-3 39 -6 43
-36 49 -19 4 -39 12 -45 18 -8 8 -13 70 -15 181 l-3 170 45 0 46 0 0 40 0 40
-45 0 -45 0 0 90 c0 102 -2 104 -67 64z"></path>
<path d="M6370 2371 c-121 -37 -178 -137 -168 -299 5 -89 29 -143 82 -190 44
-38 91 -52 181 -52 80 0 134 21 177 66 25 26 63 102 56 109 -2 2 -28 6 -58 10
l-56 7 -24 -39 c-14 -21 -42 -46 -63 -57 -36 -17 -40 -17 -82 -1 -25 9 -53 29
-64 43 -21 30 -42 97 -33 106 3 3 90 6 194 6 l188 0 0 35 c0 160 -98 266 -245
264 -33 0 -71 -4 -85 -8z m140 -96 c29 -15 50 -45 64 -92 l7 -23 -130 0 c-144
0 -146 1 -116 61 32 61 113 86 175 54z"></path>
<path d="M8268 2357 c-45 -23 -48 -23 -48 -6 0 16 -8 19 -50 19 l-50 0 0 -265
0 -265 55 0 55 0 0 163 c0 89 5 178 10 198 13 46 48 78 93 86 29 4 40 1 61
-20 l26 -26 0 -201 0 -200 60 0 60 0 0 175 c0 197 8 233 59 259 40 21 74 20
102 -3 24 -19 24 -23 27 -225 l3 -206 55 0 54 0 0 216 c0 251 -6 274 -74 305
-70 32 -176 21 -222 -22 l-23 -21 -35 27 c-29 22 -50 29 -104 32 -57 4 -74 1
-114 -20z"></path>
<path d="M9120 2371 c-121 -37 -178 -137 -168 -299 5 -89 29 -143 82 -190 44
-38 91 -52 181 -52 80 0 134 21 177 66 25 26 63 102 56 109 -2 2 -28 6 -58 10
l-56 7 -24 -39 c-14 -21 -42 -46 -63 -57 -36 -17 -40 -17 -82 -1 -25 9 -53 29
-64 43 -21 30 -42 97 -33 106 3 3 90 6 194 6 l188 0 0 35 c0 160 -98 266 -245
264 -33 0 -71 -4 -85 -8z m140 -96 c29 -15 50 -45 64 -92 l7 -23 -130 0 c-144
0 -146 1 -116 61 32 61 113 86 175 54z"></path>
<path d="M11198 2364 c-55 -17 -102 -60 -118 -110 -15 -45 -5 -54 60 -54 41 0
47 3 57 29 14 38 51 62 100 64 73 2 123 -35 123 -93 0 -23 -35 -34 -155 -51
-154 -21 -205 -64 -205 -171 0 -100 62 -148 192 -148 56 0 85 6 125 24 50 24
52 24 58 5 5 -16 16 -19 66 -19 32 0 59 2 59 4 0 3 -5 17 -11 33 -6 15 -14
117 -17 226 l-7 199 -32 28 c-18 16 -49 34 -70 39 -53 15 -169 12 -225 -5z
m208 -368 c-35 -85 -176 -114 -215 -45 -18 32 -8 75 20 89 11 7 62 19 112 29
l92 17 3 -27 c2 -15 -4 -43 -12 -63z"></path>
<path d="M12608 2364 c-55 -17 -102 -60 -118 -110 -15 -45 -5 -54 60 -54 41 0
47 3 57 29 14 38 51 62 100 64 73 2 123 -35 123 -93 0 -23 -35 -34 -155 -51
-154 -21 -205 -64 -205 -171 0 -100 62 -148 192 -148 56 0 85 6 125 24 50 24
52 24 58 5 5 -16 16 -19 66 -19 32 0 59 2 59 4 0 3 -5 17 -11 33 -6 15 -14
117 -17 226 l-7 199 -32 28 c-18 16 -49 34 -70 39 -53 15 -169 12 -225 -5z
m208 -368 c-35 -85 -176 -114 -215 -45 -18 32 -8 75 20 89 11 7 62 19 112 29
l92 17 3 -27 c2 -15 -4 -43 -12 -63z"></path>
<path d="M13766 2370 c-56 -18 -105 -61 -133 -119 -50 -102 -33 -278 35 -355
33 -37 112 -66 182 -66 95 0 136 15 190 69 58 58 75 118 68 237 -7 113 -42
175 -123 217 -45 23 -170 33 -219 17z m181 -124 c75 -81 65 -248 -19 -308 -39
-27 -99 -29 -134 -2 -54 40 -67 68 -71 151 -6 101 20 157 85 190 54 27 93 18
139 -31z"></path>
<path d="M14371 2360 c-52 -24 -51 -24 -51 -5 0 11 -12 15 -50 15 l-50 0 0
-265 0 -265 54 0 54 0 4 178 c3 143 7 183 21 209 28 54 99 78 149 52 39 -21
48 -67 48 -259 l0 -180 55 0 55 0 0 205 c0 235 -8 270 -67 306 -52 32 -163 37
-222 9z"></path>
<path d="M15968 2364 c-55 -17 -102 -60 -118 -110 -15 -45 -5 -54 60 -54 41 0
47 3 57 29 14 38 51 62 100 64 73 2 123 -35 123 -93 0 -23 -35 -34 -155 -51
-154 -21 -205 -64 -205 -171 0 -100 62 -148 192 -148 56 0 85 6 125 24 50 24
52 24 58 5 5 -16 16 -19 66 -19 32 0 59 2 59 4 0 3 -5 17 -11 33 -6 15 -14
117 -17 226 l-7 199 -32 28 c-18 16 -49 34 -70 39 -53 15 -169 12 -225 -5z
m208 -368 c-35 -85 -176 -114 -215 -45 -18 32 -8 75 20 89 11 7 62 19 112 29
l92 17 3 -27 c2 -15 -4 -43 -12 -63z"></path>
<path d="M16858 2364 c-55 -17 -102 -60 -118 -110 -15 -45 -5 -54 60 -54 41 0
47 3 57 29 14 38 51 62 100 64 73 2 123 -35 123 -93 0 -23 -35 -34 -155 -51
-154 -21 -205 -64 -205 -171 0 -100 62 -148 192 -148 56 0 85 6 125 24 50 24
52 24 58 5 5 -16 16 -19 66 -19 32 0 59 2 59 4 0 3 -5 17 -11 33 -6 15 -14
117 -17 226 l-7 199 -32 28 c-18 16 -49 34 -70 39 -53 15 -169 12 -225 -5z
m208 -368 c-35 -85 -176 -114 -215 -45 -18 32 -8 75 20 89 11 7 62 19 112 29
l92 17 3 -27 c2 -15 -4 -43 -12 -63z"></path>
<path d="M18018 2364 c-55 -17 -102 -60 -118 -110 -15 -45 -5 -54 60 -54 41 0
47 3 57 29 14 38 51 62 100 64 73 2 123 -35 123 -93 0 -23 -35 -34 -155 -51
-154 -21 -205 -64 -205 -171 0 -100 62 -148 192 -148 56 0 85 6 125 24 50 24
52 24 58 5 5 -16 16 -19 66 -19 32 0 59 2 59 4 0 3 -5 17 -11 33 -6 15 -14
117 -17 226 l-7 199 -32 28 c-18 16 -49 34 -70 39 -53 15 -169 12 -225 -5z
m208 -368 c-35 -85 -176 -114 -215 -45 -18 32 -8 75 20 89 11 7 62 19 112 29
l92 17 3 -27 c2 -15 -4 -43 -12 -63z"></path>
<path d="M18591 2368 c-76 -22 -111 -66 -111 -142 0 -92 31 -119 179 -161 110
-31 127 -38 141 -65 8 -16 5 -25 -18 -52 -26 -28 -36 -32 -78 -32 -60 0 -99
24 -116 71 l-13 35 -55 -7 c-30 -4 -57 -9 -59 -11 -10 -9 35 -102 62 -126 37
-35 84 -48 178 -48 142 0 227 71 217 181 -7 73 -41 103 -148 135 -150 45 -175
56 -178 86 -9 79 164 80 184 2 6 -25 8 -26 63 -19 31 4 58 8 59 10 10 9 -12
69 -35 95 -43 51 -178 75 -272 48z"></path>
<path d="M19160 2371 c-121 -37 -178 -137 -168 -299 5 -89 29 -143 82 -190 44
-38 91 -52 181 -52 80 0 134 21 177 66 25 26 63 102 56 109 -2 2 -28 6 -58 10
l-56 7 -24 -39 c-14 -21 -42 -46 -63 -57 -36 -17 -40 -17 -82 -1 -25 9 -53 29
-64 43 -21 30 -42 97 -33 106 3 3 90 6 194 6 l188 0 0 35 c0 160 -98 266 -245
264 -33 0 -71 -4 -85 -8z m140 -96 c29 -15 50 -45 64 -92 l7 -23 -130 0 c-144
0 -146 1 -116 61 32 61 113 86 175 54z"></path>
<path d="M5680 2105 l0 -265 55 0 55 0 0 265 0 265 -55 0 -55 0 0 -265z"></path>
<path d="M7870 2105 l0 -265 55 0 55 0 0 265 0 265 -55 0 -55 0 0 -265z"></path>
<path d="M10504 2353 c4 -10 48 -128 100 -263 l93 -245 60 -3 c58 -3 61 -2 71
25 15 37 182 496 182 500 0 2 -28 3 -62 3 l-63 0 -49 -143 c-27 -78 -57 -160
-66 -181 l-16 -40 -62 173 c-34 95 -62 177 -62 182 0 5 -30 9 -66 9 -58 0 -65
-2 -60 -17z"></path>
<path d="M11920 2158 c0 -183 3 -218 18 -248 38 -78 189 -107 280 -55 40 23
42 23 42 4 0 -16 7 -19 50 -19 l50 0 0 265 0 265 -54 0 -54 0 -4 -177 c-4
-205 -10 -226 -76 -260 -35 -17 -49 -20 -72 -12 -62 22 -65 32 -68 250 l-3
199 -55 0 -54 0 0 -212z"></path>
<path d="M13390 2105 l0 -265 55 0 55 0 0 265 0 265 -55 0 -55 0 0 -265z"></path>
<path d="M3250 1635 l0 -35 640 0 640 0 0 35 0 35 -640 0 -640 0 0 -35z"></path>
<path d="M7050 1635 l0 -35 375 0 375 0 0 35 0 35 -375 0 -375 0 0 -35z"></path>
<path d="M9800 1635 l0 -35 345 0 345 0 0 35 0 35 -345 0 -345 0 0 -35z"></path>
<path d="M14740 1635 l0 -35 525 0 525 0 0 35 0 35 -525 0 -525 0 0 -35z"></path>
</g>
</svg><style>@media (prefers-color-scheme: light) { :root { filter: none; } }
</style></svg>